<?xml version="1.0" encoding="utf-8" standalone="no"?>
<!DOCTYPE svg PUBLIC "-//W3C//DTD SVG 1.1//EN"
  "http://www.w3.org/Graphics/SVG/1.1/DTD/svg11.dtd">
<!-- Created with matplotlib (http://matplotlib.org/) -->
<svg height="432pt" version="1.1" viewBox="0 0 1080 432" width="1080pt" xmlns="http://www.w3.org/2000/svg" xmlns:xlink="http://www.w3.org/1999/xlink">
 <defs>
  <style type="text/css">
*{stroke-linecap:butt;stroke-linejoin:round;stroke-miterlimit:100000;}
  </style>
 </defs>
 <g id="figure_1">
  <g id="patch_1">
   <path d="M 0 432 
L 1080 432 
L 1080 0 
L 0 0 
z
" style="fill:#ffffff;"/>
  </g>
  <g id="axes_1">
   <g id="patch_2">
    <path d="M 206.3875 373.2 
L 1069.2 373.2 
L 1069.2 10.8 
L 206.3875 10.8 
z
" style="fill:#e5e5e5;"/>
   </g>
   <g id="matplotlib.axis_1">
    <g id="xtick_1">
     <g id="line2d_1">
      <path clip-path="url(#p5f51c8ddc5)" d="M 206.3875 373.2 
L 206.3875 10.8 
" style="fill:none;stroke:#ffffff;stroke-linecap:round;"/>
     </g>
     <g id="line2d_2">
      <defs>
       <path d="M 0 0 
L 0 0 
" id="mdd3cf81bde" style="stroke:#555555;"/>
      </defs>
      <g>
       <use style="fill:#555555;stroke:#555555;" x="206.3875" xlink:href="#mdd3cf81bde" y="373.2"/>
      </g>
     </g>
     <g id="line2d_3">
      <g>
       <use style="fill:#555555;stroke:#555555;" x="206.3875" xlink:href="#mdd3cf81bde" y="10.8"/>
      </g>
     </g>
     <g id="text_1">
      <!-- 0 -->
      <defs>
       <path d="M 4.15625 35.296875 
Q 4.15625 48 6.765625 55.734375 
Q 9.375 63.484375 14.515625 67.671875 
Q 19.671875 71.875 27.484375 71.875 
Q 33.25 71.875 37.59375 69.546875 
Q 41.9375 67.234375 44.765625 62.859375 
Q 47.609375 58.5 49.21875 52.21875 
Q 50.828125 45.953125 50.828125 35.296875 
Q 50.828125 22.703125 48.234375 14.96875 
Q 45.65625 7.234375 40.5 3 
Q 35.359375 -1.21875 27.484375 -1.21875 
Q 17.140625 -1.21875 11.234375 6.203125 
Q 4.15625 15.140625 4.15625 35.296875 
M 13.1875 35.296875 
Q 13.1875 17.671875 17.3125 11.828125 
Q 21.4375 6 27.484375 6 
Q 33.546875 6 37.671875 11.859375 
Q 41.796875 17.71875 41.796875 35.296875 
Q 41.796875 52.984375 37.671875 58.78125 
Q 33.546875 64.59375 27.390625 64.59375 
Q 21.34375 64.59375 17.71875 59.46875 
Q 13.1875 52.9375 13.1875 35.296875 
" id="ArialMT-30"/>
      </defs>
      <g style="fill:#555555;" transform="translate(200.8265625 394.515625)scale(0.2 -0.2)">
       <use xlink:href="#ArialMT-30"/>
      </g>
     </g>
    </g>
    <g id="xtick_2">
     <g id="line2d_4">
      <path clip-path="url(#p5f51c8ddc5)" d="M 257.141176 373.2 
L 257.141176 10.8 
" style="fill:none;stroke:#ffffff;stroke-linecap:round;"/>
     </g>
     <g id="line2d_5">
      <g>
       <use style="fill:#555555;stroke:#555555;" x="257.141176471" xlink:href="#mdd3cf81bde" y="373.2"/>
      </g>
     </g>
     <g id="line2d_6">
      <g>
       <use style="fill:#555555;stroke:#555555;" x="257.141176471" xlink:href="#mdd3cf81bde" y="10.8"/>
      </g>
     </g>
    </g>
    <g id="xtick_3">
     <g id="line2d_7">
      <path clip-path="url(#p5f51c8ddc5)" d="M 307.894853 373.2 
L 307.894853 10.8 
" style="fill:none;stroke:#ffffff;stroke-linecap:round;"/>
     </g>
     <g id="line2d_8">
      <g>
       <use style="fill:#555555;stroke:#555555;" x="307.894852941" xlink:href="#mdd3cf81bde" y="373.2"/>
      </g>
     </g>
     <g id="line2d_9">
      <g>
       <use style="fill:#555555;stroke:#555555;" x="307.894852941" xlink:href="#mdd3cf81bde" y="10.8"/>
      </g>
     </g>
    </g>
    <g id="xtick_4">
     <g id="line2d_10">
      <path clip-path="url(#p5f51c8ddc5)" d="M 358.648529 373.2 
L 358.648529 10.8 
" style="fill:none;stroke:#ffffff;stroke-linecap:round;"/>
     </g>
     <g id="line2d_11">
      <g>
       <use style="fill:#555555;stroke:#555555;" x="358.648529412" xlink:href="#mdd3cf81bde" y="373.2"/>
      </g>
     </g>
     <g id="line2d_12">
      <g>
       <use style="fill:#555555;stroke:#555555;" x="358.648529412" xlink:href="#mdd3cf81bde" y="10.8"/>
      </g>
     </g>
    </g>
    <g id="xtick_5">
     <g id="line2d_13">
      <path clip-path="url(#p5f51c8ddc5)" d="M 409.402206 373.2 
L 409.402206 10.8 
" style="fill:none;stroke:#ffffff;stroke-linecap:round;"/>
     </g>
     <g id="line2d_14">
      <g>
       <use style="fill:#555555;stroke:#555555;" x="409.402205882" xlink:href="#mdd3cf81bde" y="373.2"/>
      </g>
     </g>
     <g id="line2d_15">
      <g>
       <use style="fill:#555555;stroke:#555555;" x="409.402205882" xlink:href="#mdd3cf81bde" y="10.8"/>
      </g>
     </g>
    </g>
    <g id="xtick_6">
     <g id="line2d_16">
      <path clip-path="url(#p5f51c8ddc5)" d="M 460.155882 373.2 
L 460.155882 10.8 
" style="fill:none;stroke:#ffffff;stroke-linecap:round;"/>
     </g>
     <g id="line2d_17">
      <g>
       <use style="fill:#555555;stroke:#555555;" x="460.155882353" xlink:href="#mdd3cf81bde" y="373.2"/>
      </g>
     </g>
     <g id="line2d_18">
      <g>
       <use style="fill:#555555;stroke:#555555;" x="460.155882353" xlink:href="#mdd3cf81bde" y="10.8"/>
      </g>
     </g>
     <g id="text_2">
      <!-- 5 -->
      <defs>
       <path d="M 4.15625 18.75 
L 13.375 19.53125 
Q 14.40625 12.796875 18.140625 9.390625 
Q 21.875 6 27.15625 6 
Q 33.5 6 37.890625 10.78125 
Q 42.28125 15.578125 42.28125 23.484375 
Q 42.28125 31 38.0625 35.34375 
Q 33.84375 39.703125 27 39.703125 
Q 22.75 39.703125 19.328125 37.765625 
Q 15.921875 35.84375 13.96875 32.765625 
L 5.71875 33.84375 
L 12.640625 70.609375 
L 48.25 70.609375 
L 48.25 62.203125 
L 19.671875 62.203125 
L 15.828125 42.96875 
Q 22.265625 47.46875 29.34375 47.46875 
Q 38.71875 47.46875 45.15625 40.96875 
Q 51.609375 34.46875 51.609375 24.265625 
Q 51.609375 14.546875 45.953125 7.46875 
Q 39.0625 -1.21875 27.15625 -1.21875 
Q 17.390625 -1.21875 11.203125 4.25 
Q 5.03125 9.71875 4.15625 18.75 
" id="ArialMT-35"/>
      </defs>
      <g style="fill:#555555;" transform="translate(454.594944853 394.515625)scale(0.2 -0.2)">
       <use xlink:href="#ArialMT-35"/>
      </g>
     </g>
    </g>
    <g id="xtick_7">
     <g id="line2d_19">
      <path clip-path="url(#p5f51c8ddc5)" d="M 510.909559 373.2 
L 510.909559 10.8 
" style="fill:none;stroke:#ffffff;stroke-linecap:round;"/>
     </g>
     <g id="line2d_20">
      <g>
       <use style="fill:#555555;stroke:#555555;" x="510.909558824" xlink:href="#mdd3cf81bde" y="373.2"/>
      </g>
     </g>
     <g id="line2d_21">
      <g>
       <use style="fill:#555555;stroke:#555555;" x="510.909558824" xlink:href="#mdd3cf81bde" y="10.8"/>
      </g>
     </g>
    </g>
    <g id="xtick_8">
     <g id="line2d_22">
      <path clip-path="url(#p5f51c8ddc5)" d="M 561.663235 373.2 
L 561.663235 10.8 
" style="fill:none;stroke:#ffffff;stroke-linecap:round;"/>
     </g>
     <g id="line2d_23">
      <g>
       <use style="fill:#555555;stroke:#555555;" x="561.663235294" xlink:href="#mdd3cf81bde" y="373.2"/>
      </g>
     </g>
     <g id="line2d_24">
      <g>
       <use style="fill:#555555;stroke:#555555;" x="561.663235294" xlink:href="#mdd3cf81bde" y="10.8"/>
      </g>
     </g>
    </g>
    <g id="xtick_9">
     <g id="line2d_25">
      <path clip-path="url(#p5f51c8ddc5)" d="M 612.416912 373.2 
L 612.416912 10.8 
" style="fill:none;stroke:#ffffff;stroke-linecap:round;"/>
     </g>
     <g id="line2d_26">
      <g>
       <use style="fill:#555555;stroke:#555555;" x="612.416911765" xlink:href="#mdd3cf81bde" y="373.2"/>
      </g>
     </g>
     <g id="line2d_27">
      <g>
       <use style="fill:#555555;stroke:#555555;" x="612.416911765" xlink:href="#mdd3cf81bde" y="10.8"/>
      </g>
     </g>
    </g>
    <g id="xtick_10">
     <g id="line2d_28">
      <path clip-path="url(#p5f51c8ddc5)" d="M 663.170588 373.2 
L 663.170588 10.8 
" style="fill:none;stroke:#ffffff;stroke-linecap:round;"/>
     </g>
     <g id="line2d_29">
      <g>
       <use style="fill:#555555;stroke:#555555;" x="663.170588235" xlink:href="#mdd3cf81bde" y="373.2"/>
      </g>
     </g>
     <g id="line2d_30">
      <g>
       <use style="fill:#555555;stroke:#555555;" x="663.170588235" xlink:href="#mdd3cf81bde" y="10.8"/>
      </g>
     </g>
    </g>
    <g id="xtick_11">
     <g id="line2d_31">
      <path clip-path="url(#p5f51c8ddc5)" d="M 713.924265 373.2 
L 713.924265 10.8 
" style="fill:none;stroke:#ffffff;stroke-linecap:round;"/>
     </g>
     <g id="line2d_32">
      <g>
       <use style="fill:#555555;stroke:#555555;" x="713.924264706" xlink:href="#mdd3cf81bde" y="373.2"/>
      </g>
     </g>
     <g id="line2d_33">
      <g>
       <use style="fill:#555555;stroke:#555555;" x="713.924264706" xlink:href="#mdd3cf81bde" y="10.8"/>
      </g>
     </g>
     <g id="text_3">
      <!-- 10 -->
      <defs>
       <path d="M 37.25 0 
L 28.46875 0 
L 28.46875 56 
Q 25.296875 52.984375 20.140625 49.953125 
Q 14.984375 46.921875 10.890625 45.40625 
L 10.890625 53.90625 
Q 18.265625 57.375 23.78125 62.296875 
Q 29.296875 67.234375 31.59375 71.875 
L 37.25 71.875 
z
" id="ArialMT-31"/>
      </defs>
      <g style="fill:#555555;" transform="translate(702.802389706 394.515625)scale(0.2 -0.2)">
       <use xlink:href="#ArialMT-31"/>
       <use x="55.615234375" xlink:href="#ArialMT-30"/>
      </g>
     </g>
    </g>
    <g id="xtick_12">
     <g id="line2d_34">
      <path clip-path="url(#p5f51c8ddc5)" d="M 764.677941 373.2 
L 764.677941 10.8 
" style="fill:none;stroke:#ffffff;stroke-linecap:round;"/>
     </g>
     <g id="line2d_35">
      <g>
       <use style="fill:#555555;stroke:#555555;" x="764.677941176" xlink:href="#mdd3cf81bde" y="373.2"/>
      </g>
     </g>
     <g id="line2d_36">
      <g>
       <use style="fill:#555555;stroke:#555555;" x="764.677941176" xlink:href="#mdd3cf81bde" y="10.8"/>
      </g>
     </g>
    </g>
    <g id="xtick_13">
     <g id="line2d_37">
      <path clip-path="url(#p5f51c8ddc5)" d="M 815.431618 373.2 
L 815.431618 10.8 
" style="fill:none;stroke:#ffffff;stroke-linecap:round;"/>
     </g>
     <g id="line2d_38">
      <g>
       <use style="fill:#555555;stroke:#555555;" x="815.431617647" xlink:href="#mdd3cf81bde" y="373.2"/>
      </g>
     </g>
     <g id="line2d_39">
      <g>
       <use style="fill:#555555;stroke:#555555;" x="815.431617647" xlink:href="#mdd3cf81bde" y="10.8"/>
      </g>
     </g>
    </g>
    <g id="xtick_14">
     <g id="line2d_40">
      <path clip-path="url(#p5f51c8ddc5)" d="M 866.185294 373.2 
L 866.185294 10.8 
" style="fill:none;stroke:#ffffff;stroke-linecap:round;"/>
     </g>
     <g id="line2d_41">
      <g>
       <use style="fill:#555555;stroke:#555555;" x="866.185294118" xlink:href="#mdd3cf81bde" y="373.2"/>
      </g>
     </g>
     <g id="line2d_42">
      <g>
       <use style="fill:#555555;stroke:#555555;" x="866.185294118" xlink:href="#mdd3cf81bde" y="10.8"/>
      </g>
     </g>
    </g>
    <g id="xtick_15">
     <g id="line2d_43">
      <path clip-path="url(#p5f51c8ddc5)" d="M 916.938971 373.2 
L 916.938971 10.8 
" style="fill:none;stroke:#ffffff;stroke-linecap:round;"/>
     </g>
     <g id="line2d_44">
      <g>
       <use style="fill:#555555;stroke:#555555;" x="916.938970588" xlink:href="#mdd3cf81bde" y="373.2"/>
      </g>
     </g>
     <g id="line2d_45">
      <g>
       <use style="fill:#555555;stroke:#555555;" x="916.938970588" xlink:href="#mdd3cf81bde" y="10.8"/>
      </g>
     </g>
    </g>
    <g id="xtick_16">
     <g id="line2d_46">
      <path clip-path="url(#p5f51c8ddc5)" d="M 967.692647 373.2 
L 967.692647 10.8 
" style="fill:none;stroke:#ffffff;stroke-linecap:round;"/>
     </g>
     <g id="line2d_47">
      <g>
       <use style="fill:#555555;stroke:#555555;" x="967.692647059" xlink:href="#mdd3cf81bde" y="373.2"/>
      </g>
     </g>
     <g id="line2d_48">
      <g>
       <use style="fill:#555555;stroke:#555555;" x="967.692647059" xlink:href="#mdd3cf81bde" y="10.8"/>
      </g>
     </g>
     <g id="text_4">
      <!-- 15 -->
      <g style="fill:#555555;" transform="translate(956.570772059 394.515625)scale(0.2 -0.2)">
       <use xlink:href="#ArialMT-31"/>
       <use x="55.615234375" xlink:href="#ArialMT-35"/>
      </g>
     </g>
    </g>
    <g id="xtick_17">
     <g id="line2d_49">
      <path clip-path="url(#p5f51c8ddc5)" d="M 1018.446324 373.2 
L 1018.446324 10.8 
" style="fill:none;stroke:#ffffff;stroke-linecap:round;"/>
     </g>
     <g id="line2d_50">
      <g>
       <use style="fill:#555555;stroke:#555555;" x="1018.44632353" xlink:href="#mdd3cf81bde" y="373.2"/>
      </g>
     </g>
     <g id="line2d_51">
      <g>
       <use style="fill:#555555;stroke:#555555;" x="1018.44632353" xlink:href="#mdd3cf81bde" y="10.8"/>
      </g>
     </g>
    </g>
    <g id="xtick_18">
     <g id="line2d_52">
      <defs>
       <path d="M 0 0 
L 0 0 
" id="mef96f3ec31" style="stroke:#555555;stroke-width:0.5;"/>
      </defs>
      <g>
       <use style="fill:#555555;stroke:#555555;stroke-width:0.5;" x="206.3875" xlink:href="#mef96f3ec31" y="373.2"/>
      </g>
     </g>
     <g id="line2d_53">
      <g>
       <use style="fill:#555555;stroke:#555555;stroke-width:0.5;" x="206.3875" xlink:href="#mef96f3ec31" y="10.8"/>
      </g>
     </g>
    </g>
    <g id="xtick_19">
     <g id="line2d_54">
      <g>
       <use style="fill:#555555;stroke:#555555;stroke-width:0.5;" x="257.141176471" xlink:href="#mef96f3ec31" y="373.2"/>
      </g>
     </g>
     <g id="line2d_55">
      <g>
       <use style="fill:#555555;stroke:#555555;stroke-width:0.5;" x="257.141176471" xlink:href="#mef96f3ec31" y="10.8"/>
      </g>
     </g>
     <g id="text_5">
      <!-- 1 -->
      <g style="fill:#555555;" transform="translate(253.248520221 387.2209375)scale(0.14 -0.14)">
       <use xlink:href="#ArialMT-31"/>
      </g>
     </g>
    </g>
    <g id="xtick_20">
     <g id="line2d_56">
      <g>
       <use style="fill:#555555;stroke:#555555;stroke-width:0.5;" x="307.894852941" xlink:href="#mef96f3ec31" y="373.2"/>
      </g>
     </g>
     <g id="line2d_57">
      <g>
       <use style="fill:#555555;stroke:#555555;stroke-width:0.5;" x="307.894852941" xlink:href="#mef96f3ec31" y="10.8"/>
      </g>
     </g>
     <g id="text_6">
      <!-- 2 -->
      <defs>
       <path d="M 50.34375 8.453125 
L 50.34375 0 
L 3.03125 0 
Q 2.9375 3.171875 4.046875 6.109375 
Q 5.859375 10.9375 9.828125 15.625 
Q 13.8125 20.3125 21.34375 26.46875 
Q 33.015625 36.03125 37.109375 41.625 
Q 41.21875 47.21875 41.21875 52.203125 
Q 41.21875 57.421875 37.46875 61 
Q 33.734375 64.59375 27.734375 64.59375 
Q 21.390625 64.59375 17.578125 60.78125 
Q 13.765625 56.984375 13.71875 50.25 
L 4.6875 51.171875 
Q 5.609375 61.28125 11.65625 66.578125 
Q 17.71875 71.875 27.9375 71.875 
Q 38.234375 71.875 44.234375 66.15625 
Q 50.25 60.453125 50.25 52 
Q 50.25 47.703125 48.484375 43.546875 
Q 46.734375 39.40625 42.65625 34.8125 
Q 38.578125 30.21875 29.109375 22.21875 
Q 21.1875 15.578125 18.9375 13.203125 
Q 16.703125 10.84375 15.234375 8.453125 
z
" id="ArialMT-32"/>
      </defs>
      <g style="fill:#555555;" transform="translate(304.002196691 387.2209375)scale(0.14 -0.14)">
       <use xlink:href="#ArialMT-32"/>
      </g>
     </g>
    </g>
    <g id="xtick_21">
     <g id="line2d_58">
      <g>
       <use style="fill:#555555;stroke:#555555;stroke-width:0.5;" x="358.648529412" xlink:href="#mef96f3ec31" y="373.2"/>
      </g>
     </g>
     <g id="line2d_59">
      <g>
       <use style="fill:#555555;stroke:#555555;stroke-width:0.5;" x="358.648529412" xlink:href="#mef96f3ec31" y="10.8"/>
      </g>
     </g>
     <g id="text_7">
      <!-- 3 -->
      <defs>
       <path d="M 4.203125 18.890625 
L 12.984375 20.0625 
Q 14.5 12.59375 18.140625 9.296875 
Q 21.78125 6 27 6 
Q 33.203125 6 37.46875 10.296875 
Q 41.75 14.59375 41.75 20.953125 
Q 41.75 27 37.796875 30.921875 
Q 33.84375 34.859375 27.734375 34.859375 
Q 25.25 34.859375 21.53125 33.890625 
L 22.515625 41.609375 
Q 23.390625 41.5 23.921875 41.5 
Q 29.546875 41.5 34.03125 44.421875 
Q 38.53125 47.359375 38.53125 53.46875 
Q 38.53125 58.296875 35.25 61.46875 
Q 31.984375 64.65625 26.8125 64.65625 
Q 21.6875 64.65625 18.265625 61.421875 
Q 14.84375 58.203125 13.875 51.765625 
L 5.078125 53.328125 
Q 6.6875 62.15625 12.390625 67.015625 
Q 18.109375 71.875 26.609375 71.875 
Q 32.46875 71.875 37.390625 69.359375 
Q 42.328125 66.84375 44.9375 62.5 
Q 47.5625 58.15625 47.5625 53.265625 
Q 47.5625 48.640625 45.0625 44.828125 
Q 42.578125 41.015625 37.703125 38.765625 
Q 44.046875 37.3125 47.5625 32.6875 
Q 51.078125 28.078125 51.078125 21.140625 
Q 51.078125 11.765625 44.234375 5.25 
Q 37.40625 -1.265625 26.953125 -1.265625 
Q 17.53125 -1.265625 11.296875 4.34375 
Q 5.078125 9.96875 4.203125 18.890625 
" id="ArialMT-33"/>
      </defs>
      <g style="fill:#555555;" transform="translate(354.755873162 387.2209375)scale(0.14 -0.14)">
       <use xlink:href="#ArialMT-33"/>
      </g>
     </g>
    </g>
    <g id="xtick_22">
     <g id="line2d_60">
      <g>
       <use style="fill:#555555;stroke:#555555;stroke-width:0.5;" x="409.402205882" xlink:href="#mef96f3ec31" y="373.2"/>
      </g>
     </g>
     <g id="line2d_61">
      <g>
       <use style="fill:#555555;stroke:#555555;stroke-width:0.5;" x="409.402205882" xlink:href="#mef96f3ec31" y="10.8"/>
      </g>
     </g>
     <g id="text_8">
      <!-- 4 -->
      <defs>
       <path d="M 32.328125 0 
L 32.328125 17.140625 
L 1.265625 17.140625 
L 1.265625 25.203125 
L 33.9375 71.578125 
L 41.109375 71.578125 
L 41.109375 25.203125 
L 50.78125 25.203125 
L 50.78125 17.140625 
L 41.109375 17.140625 
L 41.109375 0 
z
M 32.328125 25.203125 
L 32.328125 57.46875 
L 9.90625 25.203125 
z
" id="ArialMT-34"/>
      </defs>
      <g style="fill:#555555;" transform="translate(405.509549632 387.2209375)scale(0.14 -0.14)">
       <use xlink:href="#ArialMT-34"/>
      </g>
     </g>
    </g>
    <g id="xtick_23">
     <g id="line2d_62">
      <g>
       <use style="fill:#555555;stroke:#555555;stroke-width:0.5;" x="460.155882353" xlink:href="#mef96f3ec31" y="373.2"/>
      </g>
     </g>
     <g id="line2d_63">
      <g>
       <use style="fill:#555555;stroke:#555555;stroke-width:0.5;" x="460.155882353" xlink:href="#mef96f3ec31" y="10.8"/>
      </g>
     </g>
    </g>
    <g id="xtick_24">
     <g id="line2d_64">
      <g>
       <use style="fill:#555555;stroke:#555555;stroke-width:0.5;" x="510.909558824" xlink:href="#mef96f3ec31" y="373.2"/>
      </g>
     </g>
     <g id="line2d_65">
      <g>
       <use style="fill:#555555;stroke:#555555;stroke-width:0.5;" x="510.909558824" xlink:href="#mef96f3ec31" y="10.8"/>
      </g>
     </g>
     <g id="text_9">
      <!-- 6 -->
      <defs>
       <path d="M 49.75 54.046875 
L 41.015625 53.375 
Q 39.84375 58.546875 37.703125 60.890625 
Q 34.125 64.65625 28.90625 64.65625 
Q 24.703125 64.65625 21.53125 62.3125 
Q 17.390625 59.28125 14.984375 53.46875 
Q 12.59375 47.65625 12.5 36.921875 
Q 15.671875 41.75 20.265625 44.09375 
Q 24.859375 46.4375 29.890625 46.4375 
Q 38.671875 46.4375 44.84375 39.96875 
Q 51.03125 33.5 51.03125 23.25 
Q 51.03125 16.5 48.125 10.71875 
Q 45.21875 4.9375 40.140625 1.859375 
Q 35.0625 -1.21875 28.609375 -1.21875 
Q 17.625 -1.21875 10.6875 6.859375 
Q 3.765625 14.9375 3.765625 33.5 
Q 3.765625 54.25 11.421875 63.671875 
Q 18.109375 71.875 29.4375 71.875 
Q 37.890625 71.875 43.28125 67.140625 
Q 48.6875 62.40625 49.75 54.046875 
M 13.875 23.1875 
Q 13.875 18.65625 15.796875 14.5 
Q 17.71875 10.359375 21.1875 8.171875 
Q 24.65625 6 28.46875 6 
Q 34.03125 6 38.03125 10.484375 
Q 42.046875 14.984375 42.046875 22.703125 
Q 42.046875 30.125 38.078125 34.390625 
Q 34.125 38.671875 28.125 38.671875 
Q 22.171875 38.671875 18.015625 34.390625 
Q 13.875 30.125 13.875 23.1875 
" id="ArialMT-36"/>
      </defs>
      <g style="fill:#555555;" transform="translate(507.016902574 387.2209375)scale(0.14 -0.14)">
       <use xlink:href="#ArialMT-36"/>
      </g>
     </g>
    </g>
    <g id="xtick_25">
     <g id="line2d_66">
      <g>
       <use style="fill:#555555;stroke:#555555;stroke-width:0.5;" x="561.663235294" xlink:href="#mef96f3ec31" y="373.2"/>
      </g>
     </g>
     <g id="line2d_67">
      <g>
       <use style="fill:#555555;stroke:#555555;stroke-width:0.5;" x="561.663235294" xlink:href="#mef96f3ec31" y="10.8"/>
      </g>
     </g>
     <g id="text_10">
      <!-- 7 -->
      <defs>
       <path d="M 4.734375 62.203125 
L 4.734375 70.65625 
L 51.078125 70.65625 
L 51.078125 63.8125 
Q 44.234375 56.546875 37.515625 44.484375 
Q 30.8125 32.421875 27.15625 19.671875 
Q 24.515625 10.6875 23.78125 0 
L 14.75 0 
Q 14.890625 8.453125 18.0625 20.40625 
Q 21.234375 32.375 27.171875 43.484375 
Q 33.109375 54.59375 39.796875 62.203125 
z
" id="ArialMT-37"/>
      </defs>
      <g style="fill:#555555;" transform="translate(557.770579044 387.2209375)scale(0.14 -0.14)">
       <use xlink:href="#ArialMT-37"/>
      </g>
     </g>
    </g>
    <g id="xtick_26">
     <g id="line2d_68">
      <g>
       <use style="fill:#555555;stroke:#555555;stroke-width:0.5;" x="612.416911765" xlink:href="#mef96f3ec31" y="373.2"/>
      </g>
     </g>
     <g id="line2d_69">
      <g>
       <use style="fill:#555555;stroke:#555555;stroke-width:0.5;" x="612.416911765" xlink:href="#mef96f3ec31" y="10.8"/>
      </g>
     </g>
     <g id="text_11">
      <!-- 8 -->
      <defs>
       <path d="M 17.671875 38.8125 
Q 12.203125 40.828125 9.5625 44.53125 
Q 6.9375 48.25 6.9375 53.421875 
Q 6.9375 61.234375 12.546875 66.546875 
Q 18.171875 71.875 27.484375 71.875 
Q 36.859375 71.875 42.578125 66.421875 
Q 48.296875 60.984375 48.296875 53.171875 
Q 48.296875 48.1875 45.671875 44.5 
Q 43.0625 40.828125 37.75 38.8125 
Q 44.34375 36.671875 47.78125 31.875 
Q 51.21875 27.09375 51.21875 20.453125 
Q 51.21875 11.28125 44.71875 5.03125 
Q 38.234375 -1.21875 27.640625 -1.21875 
Q 17.046875 -1.21875 10.546875 5.046875 
Q 4.046875 11.328125 4.046875 20.703125 
Q 4.046875 27.6875 7.59375 32.390625 
Q 11.140625 37.109375 17.671875 38.8125 
M 15.921875 53.71875 
Q 15.921875 48.640625 19.1875 45.40625 
Q 22.46875 42.1875 27.6875 42.1875 
Q 32.765625 42.1875 36.015625 45.375 
Q 39.265625 48.578125 39.265625 53.21875 
Q 39.265625 58.0625 35.90625 61.359375 
Q 32.5625 64.65625 27.59375 64.65625 
Q 22.5625 64.65625 19.234375 61.421875 
Q 15.921875 58.203125 15.921875 53.71875 
M 13.09375 20.65625 
Q 13.09375 16.890625 14.875 13.375 
Q 16.65625 9.859375 20.171875 7.921875 
Q 23.6875 6 27.734375 6 
Q 34.03125 6 38.125 10.046875 
Q 42.234375 14.109375 42.234375 20.359375 
Q 42.234375 26.703125 38.015625 30.859375 
Q 33.796875 35.015625 27.4375 35.015625 
Q 21.234375 35.015625 17.15625 30.90625 
Q 13.09375 26.8125 13.09375 20.65625 
" id="ArialMT-38"/>
      </defs>
      <g style="fill:#555555;" transform="translate(608.524255515 387.2209375)scale(0.14 -0.14)">
       <use xlink:href="#ArialMT-38"/>
      </g>
     </g>
    </g>
    <g id="xtick_27">
     <g id="line2d_70">
      <g>
       <use style="fill:#555555;stroke:#555555;stroke-width:0.5;" x="663.170588235" xlink:href="#mef96f3ec31" y="373.2"/>
      </g>
     </g>
     <g id="line2d_71">
      <g>
       <use style="fill:#555555;stroke:#555555;stroke-width:0.5;" x="663.170588235" xlink:href="#mef96f3ec31" y="10.8"/>
      </g>
     </g>
     <g id="text_12">
      <!-- 9 -->
      <defs>
       <path d="M 5.46875 16.546875 
L 13.921875 17.328125 
Q 14.984375 11.375 18.015625 8.6875 
Q 21.046875 6 25.78125 6 
Q 29.828125 6 32.875 7.859375 
Q 35.9375 9.71875 37.890625 12.8125 
Q 39.84375 15.921875 41.15625 21.1875 
Q 42.484375 26.46875 42.484375 31.9375 
Q 42.484375 32.515625 42.4375 33.6875 
Q 39.796875 29.5 35.234375 26.875 
Q 30.671875 24.265625 25.34375 24.265625 
Q 16.453125 24.265625 10.296875 30.703125 
Q 4.15625 37.15625 4.15625 47.703125 
Q 4.15625 58.59375 10.578125 65.234375 
Q 17 71.875 26.65625 71.875 
Q 33.640625 71.875 39.421875 68.109375 
Q 45.21875 64.359375 48.21875 57.390625 
Q 51.21875 50.4375 51.21875 37.25 
Q 51.21875 23.53125 48.234375 15.40625 
Q 45.265625 7.28125 39.375 3.03125 
Q 33.5 -1.21875 25.59375 -1.21875 
Q 17.1875 -1.21875 11.859375 3.4375 
Q 6.546875 8.109375 5.46875 16.546875 
M 41.453125 48.140625 
Q 41.453125 55.71875 37.421875 60.15625 
Q 33.40625 64.59375 27.734375 64.59375 
Q 21.875 64.59375 17.53125 59.8125 
Q 13.1875 55.03125 13.1875 47.40625 
Q 13.1875 40.578125 17.3125 36.296875 
Q 21.4375 32.03125 27.484375 32.03125 
Q 33.59375 32.03125 37.515625 36.296875 
Q 41.453125 40.578125 41.453125 48.140625 
" id="ArialMT-39"/>
      </defs>
      <g style="fill:#555555;" transform="translate(659.277931985 387.2209375)scale(0.14 -0.14)">
       <use xlink:href="#ArialMT-39"/>
      </g>
     </g>
    </g>
    <g id="xtick_28">
     <g id="line2d_72">
      <g>
       <use style="fill:#555555;stroke:#555555;stroke-width:0.5;" x="713.924264706" xlink:href="#mef96f3ec31" y="373.2"/>
      </g>
     </g>
     <g id="line2d_73">
      <g>
       <use style="fill:#555555;stroke:#555555;stroke-width:0.5;" x="713.924264706" xlink:href="#mef96f3ec31" y="10.8"/>
      </g>
     </g>
    </g>
    <g id="xtick_29">
     <g id="line2d_74">
      <g>
       <use style="fill:#555555;stroke:#555555;stroke-width:0.5;" x="764.677941176" xlink:href="#mef96f3ec31" y="373.2"/>
      </g>
     </g>
     <g id="line2d_75">
      <g>
       <use style="fill:#555555;stroke:#555555;stroke-width:0.5;" x="764.677941176" xlink:href="#mef96f3ec31" y="10.8"/>
      </g>
     </g>
     <g id="text_13">
      <!-- 11 -->
      <g style="fill:#555555;" transform="translate(756.900284926 387.2209375)scale(0.14 -0.14)">
       <use xlink:href="#ArialMT-31"/>
       <use x="55.505859375" xlink:href="#ArialMT-31"/>
      </g>
     </g>
    </g>
    <g id="xtick_30">
     <g id="line2d_76">
      <g>
       <use style="fill:#555555;stroke:#555555;stroke-width:0.5;" x="815.431617647" xlink:href="#mef96f3ec31" y="373.2"/>
      </g>
     </g>
     <g id="line2d_77">
      <g>
       <use style="fill:#555555;stroke:#555555;stroke-width:0.5;" x="815.431617647" xlink:href="#mef96f3ec31" y="10.8"/>
      </g>
     </g>
     <g id="text_14">
      <!-- 12 -->
      <g style="fill:#555555;" transform="translate(807.646305147 387.2209375)scale(0.14 -0.14)">
       <use xlink:href="#ArialMT-31"/>
       <use x="55.615234375" xlink:href="#ArialMT-32"/>
      </g>
     </g>
    </g>
    <g id="xtick_31">
     <g id="line2d_78">
      <g>
       <use style="fill:#555555;stroke:#555555;stroke-width:0.5;" x="866.185294118" xlink:href="#mef96f3ec31" y="373.2"/>
      </g>
     </g>
     <g id="line2d_79">
      <g>
       <use style="fill:#555555;stroke:#555555;stroke-width:0.5;" x="866.185294118" xlink:href="#mef96f3ec31" y="10.8"/>
      </g>
     </g>
     <g id="text_15">
      <!-- 13 -->
      <g style="fill:#555555;" transform="translate(858.399981618 387.2209375)scale(0.14 -0.14)">
       <use xlink:href="#ArialMT-31"/>
       <use x="55.615234375" xlink:href="#ArialMT-33"/>
      </g>
     </g>
    </g>
    <g id="xtick_32">
     <g id="line2d_80">
      <g>
       <use style="fill:#555555;stroke:#555555;stroke-width:0.5;" x="916.938970588" xlink:href="#mef96f3ec31" y="373.2"/>
      </g>
     </g>
     <g id="line2d_81">
      <g>
       <use style="fill:#555555;stroke:#555555;stroke-width:0.5;" x="916.938970588" xlink:href="#mef96f3ec31" y="10.8"/>
      </g>
     </g>
     <g id="text_16">
      <!-- 14 -->
      <g style="fill:#555555;" transform="translate(909.153658088 387.2209375)scale(0.14 -0.14)">
       <use xlink:href="#ArialMT-31"/>
       <use x="55.615234375" xlink:href="#ArialMT-34"/>
      </g>
     </g>
    </g>
    <g id="xtick_33">
     <g id="line2d_82">
      <g>
       <use style="fill:#555555;stroke:#555555;stroke-width:0.5;" x="967.692647059" xlink:href="#mef96f3ec31" y="373.2"/>
      </g>
     </g>
     <g id="line2d_83">
      <g>
       <use style="fill:#555555;stroke:#555555;stroke-width:0.5;" x="967.692647059" xlink:href="#mef96f3ec31" y="10.8"/>
      </g>
     </g>
    </g>
    <g id="xtick_34">
     <g id="line2d_84">
      <g>
       <use style="fill:#555555;stroke:#555555;stroke-width:0.5;" x="1018.44632353" xlink:href="#mef96f3ec31" y="373.2"/>
      </g>
     </g>
     <g id="line2d_85">
      <g>
       <use style="fill:#555555;stroke:#555555;stroke-width:0.5;" x="1018.44632353" xlink:href="#mef96f3ec31" y="10.8"/>
      </g>
     </g>
     <g id="text_17">
      <!-- 16 -->
      <g style="fill:#555555;" transform="translate(1010.66101103 387.2209375)scale(0.14 -0.14)">
       <use xlink:href="#ArialMT-31"/>
       <use x="55.615234375" xlink:href="#ArialMT-36"/>
      </g>
     </g>
    </g>
    <g id="text_18">
     <!-- Time (min) -->
     <defs>
      <path d="M 12.359375 -21.046875 
L 6.0625 -21.046875 
Q 20.65625 2.390625 20.65625 25.875 
Q 20.65625 35.0625 18.5625 44.09375 
Q 16.890625 51.421875 13.921875 58.15625 
Q 12.015625 62.546875 6.0625 72.796875 
L 12.359375 72.796875 
Q 21.53125 60.546875 25.921875 48.1875 
Q 29.6875 37.546875 29.6875 25.921875 
Q 29.6875 12.75 24.625 0.4375 
Q 19.578125 -11.859375 12.359375 -21.046875 
" id="ArialMT-29"/>
      <path d="M 42.09375 16.703125 
L 51.171875 15.578125 
Q 49.03125 7.625 43.21875 3.21875 
Q 37.40625 -1.171875 28.375 -1.171875 
Q 17 -1.171875 10.328125 5.828125 
Q 3.65625 12.84375 3.65625 25.484375 
Q 3.65625 38.578125 10.390625 45.796875 
Q 17.140625 53.03125 27.875 53.03125 
Q 38.28125 53.03125 44.875 45.953125 
Q 51.46875 38.875 51.46875 26.03125 
Q 51.46875 25.25 51.421875 23.6875 
L 12.75 23.6875 
Q 13.234375 15.140625 17.578125 10.59375 
Q 21.921875 6.0625 28.421875 6.0625 
Q 33.25 6.0625 36.671875 8.59375 
Q 40.09375 11.140625 42.09375 16.703125 
M 13.234375 30.90625 
L 42.1875 30.90625 
Q 41.609375 37.453125 38.875 40.71875 
Q 34.671875 45.796875 27.984375 45.796875 
Q 21.921875 45.796875 17.796875 41.75 
Q 13.671875 37.703125 13.234375 30.90625 
" id="ArialMT-65"/>
      <path d="M 6.640625 61.46875 
L 6.640625 71.578125 
L 15.4375 71.578125 
L 15.4375 61.46875 
z
M 6.640625 0 
L 6.640625 51.859375 
L 15.4375 51.859375 
L 15.4375 0 
z
" id="ArialMT-69"/>
      <path d="M 6.59375 0 
L 6.59375 51.859375 
L 14.453125 51.859375 
L 14.453125 44.578125 
Q 16.890625 48.390625 20.9375 50.703125 
Q 25 53.03125 30.171875 53.03125 
Q 35.9375 53.03125 39.625 50.640625 
Q 43.3125 48.25 44.828125 43.953125 
Q 50.984375 53.03125 60.84375 53.03125 
Q 68.5625 53.03125 72.703125 48.75 
Q 76.859375 44.484375 76.859375 35.59375 
L 76.859375 0 
L 68.109375 0 
L 68.109375 32.671875 
Q 68.109375 37.9375 67.25 40.25 
Q 66.40625 42.578125 64.15625 43.984375 
Q 61.921875 45.40625 58.890625 45.40625 
Q 53.421875 45.40625 49.796875 41.765625 
Q 46.1875 38.140625 46.1875 30.125 
L 46.1875 0 
L 37.40625 0 
L 37.40625 33.6875 
Q 37.40625 39.546875 35.25 42.46875 
Q 33.109375 45.40625 28.21875 45.40625 
Q 24.515625 45.40625 21.359375 43.453125 
Q 18.21875 41.5 16.796875 37.734375 
Q 15.375 33.984375 15.375 26.90625 
L 15.375 0 
z
" id="ArialMT-6d"/>
      <path d="M 25.921875 0 
L 25.921875 63.140625 
L 2.34375 63.140625 
L 2.34375 71.578125 
L 59.078125 71.578125 
L 59.078125 63.140625 
L 35.40625 63.140625 
L 35.40625 0 
z
" id="ArialMT-54"/>
      <path d="M 6.59375 0 
L 6.59375 51.859375 
L 14.5 51.859375 
L 14.5 44.484375 
Q 20.21875 53.03125 31 53.03125 
Q 35.6875 53.03125 39.625 51.34375 
Q 43.5625 49.65625 45.515625 46.921875 
Q 47.46875 44.1875 48.25 40.4375 
Q 48.734375 37.984375 48.734375 31.890625 
L 48.734375 0 
L 39.9375 0 
L 39.9375 31.546875 
Q 39.9375 36.921875 38.90625 39.578125 
Q 37.890625 42.234375 35.28125 43.8125 
Q 32.671875 45.40625 29.15625 45.40625 
Q 23.53125 45.40625 19.453125 41.84375 
Q 15.375 38.28125 15.375 28.328125 
L 15.375 0 
z
" id="ArialMT-6e"/>
      <path d="M 23.390625 -21.046875 
Q 16.109375 -11.859375 11.078125 0.4375 
Q 6.0625 12.75 6.0625 25.921875 
Q 6.0625 37.546875 9.8125 48.1875 
Q 14.203125 60.546875 23.390625 72.796875 
L 29.6875 72.796875 
Q 23.78125 62.640625 21.875 58.296875 
Q 18.890625 51.5625 17.1875 44.234375 
Q 15.09375 35.109375 15.09375 25.875 
Q 15.09375 2.390625 29.6875 -21.046875 
z
" id="ArialMT-28"/>
      <path id="ArialMT-20"/>
     </defs>
     <g style="fill:#555555;" transform="translate(590.028125 418.05)scale(0.2 -0.2)">
      <use xlink:href="#ArialMT-54"/>
      <use x="61.037109375" xlink:href="#ArialMT-69"/>
      <use x="83.25390625" xlink:href="#ArialMT-6d"/>
      <use x="166.5546875" xlink:href="#ArialMT-65"/>
      <use x="222.169921875" xlink:href="#ArialMT-20"/>
      <use x="249.953125" xlink:href="#ArialMT-28"/>
      <use x="283.25390625" xlink:href="#ArialMT-6d"/>
      <use x="366.5546875" xlink:href="#ArialMT-69"/>
      <use x="388.771484375" xlink:href="#ArialMT-6e"/>
      <use x="444.38671875" xlink:href="#ArialMT-29"/>
     </g>
    </g>
   </g>
   <g id="matplotlib.axis_2">
    <g id="ytick_1">
     <g id="line2d_86">
      <path clip-path="url(#p5f51c8ddc5)" d="M 206.3875 373.2 
L 1069.2 373.2 
" style="fill:none;stroke:#ffffff;stroke-linecap:round;"/>
     </g>
     <g id="line2d_87">
      <g>
       <use style="fill:#555555;stroke:#555555;" x="206.3875" xlink:href="#mdd3cf81bde" y="373.2"/>
      </g>
     </g>
     <g id="line2d_88">
      <g>
       <use style="fill:#555555;stroke:#555555;" x="1069.2" xlink:href="#mdd3cf81bde" y="373.2"/>
      </g>
     </g>
    </g>
    <g id="ytick_2">
     <g id="line2d_89">
      <path clip-path="url(#p5f51c8ddc5)" d="M 206.3875 343.249587 
L 1069.2 343.249587 
" style="fill:none;stroke:#ffffff;stroke-linecap:round;"/>
     </g>
     <g id="line2d_90">
      <g>
       <use style="fill:#555555;stroke:#555555;" x="206.3875" xlink:href="#mdd3cf81bde" y="343.249586777"/>
      </g>
     </g>
     <g id="line2d_91">
      <g>
       <use style="fill:#555555;stroke:#555555;" x="1069.2" xlink:href="#mdd3cf81bde" y="343.249586777"/>
      </g>
     </g>
    </g>
    <g id="ytick_3">
     <g id="line2d_92">
      <path clip-path="url(#p5f51c8ddc5)" d="M 206.3875 313.299174 
L 1069.2 313.299174 
" style="fill:none;stroke:#ffffff;stroke-linecap:round;"/>
     </g>
     <g id="line2d_93">
      <g>
       <use style="fill:#555555;stroke:#555555;" x="206.3875" xlink:href="#mdd3cf81bde" y="313.299173554"/>
      </g>
     </g>
     <g id="line2d_94">
      <g>
       <use style="fill:#555555;stroke:#555555;" x="1069.2" xlink:href="#mdd3cf81bde" y="313.299173554"/>
      </g>
     </g>
    </g>
    <g id="ytick_4">
     <g id="line2d_95">
      <path clip-path="url(#p5f51c8ddc5)" d="M 206.3875 283.34876 
L 1069.2 283.34876 
" style="fill:none;stroke:#ffffff;stroke-linecap:round;"/>
     </g>
     <g id="line2d_96">
      <g>
       <use style="fill:#555555;stroke:#555555;" x="206.3875" xlink:href="#mdd3cf81bde" y="283.348760331"/>
      </g>
     </g>
     <g id="line2d_97">
      <g>
       <use style="fill:#555555;stroke:#555555;" x="1069.2" xlink:href="#mdd3cf81bde" y="283.348760331"/>
      </g>
     </g>
    </g>
    <g id="ytick_5">
     <g id="line2d_98">
      <path clip-path="url(#p5f51c8ddc5)" d="M 206.3875 253.398347 
L 1069.2 253.398347 
" style="fill:none;stroke:#ffffff;stroke-linecap:round;"/>
     </g>
     <g id="line2d_99">
      <g>
       <use style="fill:#555555;stroke:#555555;" x="206.3875" xlink:href="#mdd3cf81bde" y="253.398347107"/>
      </g>
     </g>
     <g id="line2d_100">
      <g>
       <use style="fill:#555555;stroke:#555555;" x="1069.2" xlink:href="#mdd3cf81bde" y="253.398347107"/>
      </g>
     </g>
    </g>
    <g id="ytick_6">
     <g id="line2d_101">
      <path clip-path="url(#p5f51c8ddc5)" d="M 206.3875 223.447934 
L 1069.2 223.447934 
" style="fill:none;stroke:#ffffff;stroke-linecap:round;"/>
     </g>
     <g id="line2d_102">
      <g>
       <use style="fill:#555555;stroke:#555555;" x="206.3875" xlink:href="#mdd3cf81bde" y="223.447933884"/>
      </g>
     </g>
     <g id="line2d_103">
      <g>
       <use style="fill:#555555;stroke:#555555;" x="1069.2" xlink:href="#mdd3cf81bde" y="223.447933884"/>
      </g>
     </g>
    </g>
    <g id="ytick_7">
     <g id="line2d_104">
      <path clip-path="url(#p5f51c8ddc5)" d="M 206.3875 193.497521 
L 1069.2 193.497521 
" style="fill:none;stroke:#ffffff;stroke-linecap:round;"/>
     </g>
     <g id="line2d_105">
      <g>
       <use style="fill:#555555;stroke:#555555;" x="206.3875" xlink:href="#mdd3cf81bde" y="193.497520661"/>
      </g>
     </g>
     <g id="line2d_106">
      <g>
       <use style="fill:#555555;stroke:#555555;" x="1069.2" xlink:href="#mdd3cf81bde" y="193.497520661"/>
      </g>
     </g>
    </g>
    <g id="ytick_8">
     <g id="line2d_107">
      <path clip-path="url(#p5f51c8ddc5)" d="M 206.3875 163.547107 
L 1069.2 163.547107 
" style="fill:none;stroke:#ffffff;stroke-linecap:round;"/>
     </g>
     <g id="line2d_108">
      <g>
       <use style="fill:#555555;stroke:#555555;" x="206.3875" xlink:href="#mdd3cf81bde" y="163.547107438"/>
      </g>
     </g>
     <g id="line2d_109">
      <g>
       <use style="fill:#555555;stroke:#555555;" x="1069.2" xlink:href="#mdd3cf81bde" y="163.547107438"/>
      </g>
     </g>
    </g>
    <g id="ytick_9">
     <g id="line2d_110">
      <path clip-path="url(#p5f51c8ddc5)" d="M 206.3875 133.596694 
L 1069.2 133.596694 
" style="fill:none;stroke:#ffffff;stroke-linecap:round;"/>
     </g>
     <g id="line2d_111">
      <g>
       <use style="fill:#555555;stroke:#555555;" x="206.3875" xlink:href="#mdd3cf81bde" y="133.596694215"/>
      </g>
     </g>
     <g id="line2d_112">
      <g>
       <use style="fill:#555555;stroke:#555555;" x="1069.2" xlink:href="#mdd3cf81bde" y="133.596694215"/>
      </g>
     </g>
    </g>
    <g id="ytick_10">
     <g id="line2d_113">
      <path clip-path="url(#p5f51c8ddc5)" d="M 206.3875 103.646281 
L 1069.2 103.646281 
" style="fill:none;stroke:#ffffff;stroke-linecap:round;"/>
     </g>
     <g id="line2d_114">
      <g>
       <use style="fill:#555555;stroke:#555555;" x="206.3875" xlink:href="#mdd3cf81bde" y="103.646280992"/>
      </g>
     </g>
     <g id="line2d_115">
      <g>
       <use style="fill:#555555;stroke:#555555;" x="1069.2" xlink:href="#mdd3cf81bde" y="103.646280992"/>
      </g>
     </g>
    </g>
    <g id="ytick_11">
     <g id="line2d_116">
      <path clip-path="url(#p5f51c8ddc5)" d="M 206.3875 73.695868 
L 1069.2 73.695868 
" style="fill:none;stroke:#ffffff;stroke-linecap:round;"/>
     </g>
     <g id="line2d_117">
      <g>
       <use style="fill:#555555;stroke:#555555;" x="206.3875" xlink:href="#mdd3cf81bde" y="73.6958677686"/>
      </g>
     </g>
     <g id="line2d_118">
      <g>
       <use style="fill:#555555;stroke:#555555;" x="1069.2" xlink:href="#mdd3cf81bde" y="73.6958677686"/>
      </g>
     </g>
    </g>
    <g id="ytick_12">
     <g id="line2d_119">
      <path clip-path="url(#p5f51c8ddc5)" d="M 206.3875 43.745455 
L 1069.2 43.745455 
" style="fill:none;stroke:#ffffff;stroke-linecap:round;"/>
     </g>
     <g id="line2d_120">
      <g>
       <use style="fill:#555555;stroke:#555555;" x="206.3875" xlink:href="#mdd3cf81bde" y="43.7454545455"/>
      </g>
     </g>
     <g id="line2d_121">
      <g>
       <use style="fill:#555555;stroke:#555555;" x="1069.2" xlink:href="#mdd3cf81bde" y="43.7454545455"/>
      </g>
     </g>
    </g>
    <g id="ytick_13">
     <g id="line2d_122">
      <g>
       <use style="fill:#555555;stroke:#555555;stroke-width:0.5;" x="206.3875" xlink:href="#mef96f3ec31" y="358.224793388"/>
      </g>
     </g>
     <g id="line2d_123">
      <g>
       <use style="fill:#555555;stroke:#555555;stroke-width:0.5;" x="1069.2" xlink:href="#mef96f3ec31" y="358.224793388"/>
      </g>
     </g>
     <g id="text_19">
      <!-- Change axis scales -->
      <defs>
       <path d="M 40.4375 19 
L 49.078125 17.875 
Q 47.65625 8.9375 41.8125 3.875 
Q 35.984375 -1.171875 27.484375 -1.171875 
Q 16.84375 -1.171875 10.375 5.78125 
Q 3.90625 12.75 3.90625 25.734375 
Q 3.90625 34.125 6.6875 40.421875 
Q 9.46875 46.734375 15.15625 49.875 
Q 20.84375 53.03125 27.546875 53.03125 
Q 35.984375 53.03125 41.359375 48.75 
Q 46.734375 44.484375 48.25 36.625 
L 39.703125 35.296875 
Q 38.484375 40.53125 35.375 43.15625 
Q 32.28125 45.796875 27.875 45.796875 
Q 21.234375 45.796875 17.078125 41.03125 
Q 12.9375 36.28125 12.9375 25.984375 
Q 12.9375 15.53125 16.9375 10.796875 
Q 20.953125 6.0625 27.390625 6.0625 
Q 32.5625 6.0625 36.03125 9.234375 
Q 39.5 12.40625 40.4375 19 
" id="ArialMT-63"/>
       <path d="M 40.4375 6.390625 
Q 35.546875 2.25 31.03125 0.53125 
Q 26.515625 -1.171875 21.34375 -1.171875 
Q 12.796875 -1.171875 8.203125 3 
Q 3.609375 7.171875 3.609375 13.671875 
Q 3.609375 17.484375 5.34375 20.625 
Q 7.078125 23.78125 9.890625 25.6875 
Q 12.703125 27.59375 16.21875 28.5625 
Q 18.796875 29.25 24.03125 29.890625 
Q 34.671875 31.15625 39.703125 32.90625 
Q 39.75 34.71875 39.75 35.203125 
Q 39.75 40.578125 37.25 42.78125 
Q 33.890625 45.75 27.25 45.75 
Q 21.046875 45.75 18.09375 43.578125 
Q 15.140625 41.40625 13.71875 35.890625 
L 5.125 37.0625 
Q 6.296875 42.578125 8.984375 45.96875 
Q 11.671875 49.359375 16.75 51.1875 
Q 21.828125 53.03125 28.515625 53.03125 
Q 35.15625 53.03125 39.296875 51.46875 
Q 43.453125 49.90625 45.40625 47.53125 
Q 47.359375 45.171875 48.140625 41.546875 
Q 48.578125 39.3125 48.578125 33.453125 
L 48.578125 21.734375 
Q 48.578125 9.46875 49.140625 6.21875 
Q 49.703125 2.984375 51.375 0 
L 42.1875 0 
Q 40.828125 2.734375 40.4375 6.390625 
M 39.703125 26.03125 
Q 34.90625 24.078125 25.34375 22.703125 
Q 19.921875 21.921875 17.671875 20.9375 
Q 15.4375 19.96875 14.203125 18.09375 
Q 12.984375 16.21875 12.984375 13.921875 
Q 12.984375 10.40625 15.640625 8.0625 
Q 18.3125 5.71875 23.4375 5.71875 
Q 28.515625 5.71875 32.46875 7.9375 
Q 36.421875 10.15625 38.28125 14.015625 
Q 39.703125 17 39.703125 22.796875 
z
" id="ArialMT-61"/>
       <path d="M 0.734375 0 
L 19.671875 26.953125 
L 2.15625 51.859375 
L 13.140625 51.859375 
L 21.09375 39.703125 
Q 23.34375 36.234375 24.703125 33.890625 
Q 26.859375 37.109375 28.65625 39.59375 
L 37.40625 51.859375 
L 47.90625 51.859375 
L 29.984375 27.4375 
L 49.265625 0 
L 38.484375 0 
L 27.828125 16.109375 
L 25 20.453125 
L 11.375 0 
z
" id="ArialMT-78"/>
       <path d="M 58.796875 25.09375 
L 68.265625 22.703125 
Q 65.28125 11.03125 57.546875 4.90625 
Q 49.8125 -1.21875 38.625 -1.21875 
Q 27.046875 -1.21875 19.796875 3.484375 
Q 12.546875 8.203125 8.765625 17.140625 
Q 4.984375 26.078125 4.984375 36.328125 
Q 4.984375 47.515625 9.25 55.828125 
Q 13.53125 64.15625 21.40625 68.46875 
Q 29.296875 72.796875 38.765625 72.796875 
Q 49.515625 72.796875 56.828125 67.328125 
Q 64.15625 61.859375 67.046875 51.953125 
L 57.71875 49.75 
Q 55.21875 57.5625 50.484375 61.125 
Q 45.75 64.703125 38.578125 64.703125 
Q 30.328125 64.703125 24.78125 60.734375 
Q 19.234375 56.78125 16.984375 50.109375 
Q 14.75 43.453125 14.75 36.375 
Q 14.75 27.25 17.40625 20.4375 
Q 20.0625 13.625 25.671875 10.25 
Q 31.296875 6.890625 37.84375 6.890625 
Q 45.796875 6.890625 51.3125 11.46875 
Q 56.84375 16.0625 58.796875 25.09375 
" id="ArialMT-43"/>
       <path d="M 6.59375 0 
L 6.59375 71.578125 
L 15.375 71.578125 
L 15.375 45.90625 
Q 21.53125 53.03125 30.90625 53.03125 
Q 36.671875 53.03125 40.921875 50.75 
Q 45.171875 48.484375 47 44.484375 
Q 48.828125 40.484375 48.828125 32.859375 
L 48.828125 0 
L 40.046875 0 
L 40.046875 32.859375 
Q 40.046875 39.453125 37.1875 42.453125 
Q 34.328125 45.453125 29.109375 45.453125 
Q 25.203125 45.453125 21.75 43.421875 
Q 18.3125 41.40625 16.84375 37.9375 
Q 15.375 34.46875 15.375 28.375 
L 15.375 0 
z
" id="ArialMT-68"/>
       <path d="M 3.078125 15.484375 
L 11.765625 16.84375 
Q 12.5 11.625 15.84375 8.84375 
Q 19.1875 6.0625 25.203125 6.0625 
Q 31.25 6.0625 34.171875 8.515625 
Q 37.109375 10.984375 37.109375 14.3125 
Q 37.109375 17.28125 34.515625 19 
Q 32.71875 20.171875 25.53125 21.96875 
Q 15.875 24.421875 12.140625 26.203125 
Q 8.40625 27.984375 6.46875 31.125 
Q 4.546875 34.28125 4.546875 38.09375 
Q 4.546875 41.546875 6.125 44.5 
Q 7.71875 47.46875 10.453125 49.421875 
Q 12.5 50.921875 16.03125 51.96875 
Q 19.578125 53.03125 23.640625 53.03125 
Q 29.734375 53.03125 34.34375 51.265625 
Q 38.96875 49.515625 41.15625 46.5 
Q 43.359375 43.5 44.1875 38.484375 
L 35.59375 37.3125 
Q 35.015625 41.3125 32.203125 43.546875 
Q 29.390625 45.796875 24.265625 45.796875 
Q 18.21875 45.796875 15.625 43.796875 
Q 13.03125 41.796875 13.03125 39.109375 
Q 13.03125 37.40625 14.109375 36.03125 
Q 15.1875 34.625 17.484375 33.6875 
Q 18.796875 33.203125 25.25 31.453125 
Q 34.578125 28.953125 38.25 27.359375 
Q 41.9375 25.78125 44.03125 22.75 
Q 46.140625 19.734375 46.140625 15.234375 
Q 46.140625 10.84375 43.578125 6.953125 
Q 41.015625 3.078125 36.171875 0.953125 
Q 31.34375 -1.171875 25.25 -1.171875 
Q 15.140625 -1.171875 9.84375 3.03125 
Q 4.546875 7.234375 3.078125 15.484375 
" id="ArialMT-73"/>
       <path d="M 6.390625 0 
L 6.390625 71.578125 
L 15.1875 71.578125 
L 15.1875 0 
z
" id="ArialMT-6c"/>
       <path d="M 4.984375 -4.296875 
L 13.53125 -5.5625 
Q 14.0625 -9.515625 16.5 -11.328125 
Q 19.78125 -13.765625 25.4375 -13.765625 
Q 31.546875 -13.765625 34.859375 -11.328125 
Q 38.1875 -8.890625 39.359375 -4.5 
Q 40.046875 -1.8125 39.984375 6.78125 
Q 34.234375 0 25.640625 0 
Q 14.9375 0 9.078125 7.71875 
Q 3.21875 15.4375 3.21875 26.21875 
Q 3.21875 33.640625 5.90625 39.90625 
Q 8.59375 46.1875 13.6875 49.609375 
Q 18.796875 53.03125 25.6875 53.03125 
Q 34.859375 53.03125 40.828125 45.609375 
L 40.828125 51.859375 
L 48.921875 51.859375 
L 48.921875 7.03125 
Q 48.921875 -5.078125 46.453125 -10.125 
Q 44 -15.1875 38.640625 -18.109375 
Q 33.296875 -21.046875 25.484375 -21.046875 
Q 16.21875 -21.046875 10.5 -16.875 
Q 4.78125 -12.703125 4.984375 -4.296875 
M 12.25 26.859375 
Q 12.25 16.65625 16.296875 11.96875 
Q 20.359375 7.28125 26.46875 7.28125 
Q 32.515625 7.28125 36.609375 11.9375 
Q 40.71875 16.609375 40.71875 26.5625 
Q 40.71875 36.078125 36.5 40.90625 
Q 32.28125 45.75 26.3125 45.75 
Q 20.453125 45.75 16.34375 40.984375 
Q 12.25 36.234375 12.25 26.859375 
" id="ArialMT-67"/>
      </defs>
      <g style="fill:#555555;" transform="translate(28.96875 363.399793388)scale(0.2 -0.2)">
       <use xlink:href="#ArialMT-43"/>
       <use x="72.216796875" xlink:href="#ArialMT-68"/>
       <use x="127.83203125" xlink:href="#ArialMT-61"/>
       <use x="183.447265625" xlink:href="#ArialMT-6e"/>
       <use x="239.0625" xlink:href="#ArialMT-67"/>
       <use x="294.677734375" xlink:href="#ArialMT-65"/>
       <use x="350.29296875" xlink:href="#ArialMT-20"/>
       <use x="378.076171875" xlink:href="#ArialMT-61"/>
       <use x="433.69140625" xlink:href="#ArialMT-78"/>
       <use x="483.69140625" xlink:href="#ArialMT-69"/>
       <use x="505.908203125" xlink:href="#ArialMT-73"/>
       <use x="555.908203125" xlink:href="#ArialMT-20"/>
       <use x="583.69140625" xlink:href="#ArialMT-73"/>
       <use x="633.69140625" xlink:href="#ArialMT-63"/>
       <use x="683.69140625" xlink:href="#ArialMT-61"/>
       <use x="739.306640625" xlink:href="#ArialMT-6c"/>
       <use x="761.5234375" xlink:href="#ArialMT-65"/>
       <use x="817.138671875" xlink:href="#ArialMT-73"/>
      </g>
     </g>
    </g>
    <g id="ytick_14">
     <g id="line2d_124">
      <g>
       <use style="fill:#555555;stroke:#555555;stroke-width:0.5;" x="206.3875" xlink:href="#mef96f3ec31" y="328.274380165"/>
      </g>
     </g>
     <g id="line2d_125">
      <g>
       <use style="fill:#555555;stroke:#555555;stroke-width:0.5;" x="1069.2" xlink:href="#mef96f3ec31" y="328.274380165"/>
      </g>
     </g>
     <g id="text_20">
      <!-- Other axes -->
      <defs>
       <path d="M 25.78125 7.859375 
L 27.046875 0.09375 
Q 23.34375 -0.6875 20.40625 -0.6875 
Q 15.625 -0.6875 12.984375 0.828125 
Q 10.359375 2.34375 9.28125 4.8125 
Q 8.203125 7.28125 8.203125 15.1875 
L 8.203125 45.015625 
L 1.765625 45.015625 
L 1.765625 51.859375 
L 8.203125 51.859375 
L 8.203125 64.703125 
L 16.9375 69.96875 
L 16.9375 51.859375 
L 25.78125 51.859375 
L 25.78125 45.015625 
L 16.9375 45.015625 
L 16.9375 14.703125 
Q 16.9375 10.9375 17.40625 9.859375 
Q 17.875 8.796875 18.921875 8.15625 
Q 19.96875 7.515625 21.921875 7.515625 
Q 23.390625 7.515625 25.78125 7.859375 
" id="ArialMT-74"/>
       <path d="M 6.5 0 
L 6.5 51.859375 
L 14.40625 51.859375 
L 14.40625 44 
Q 17.4375 49.515625 20 51.265625 
Q 22.5625 53.03125 25.640625 53.03125 
Q 30.078125 53.03125 34.671875 50.203125 
L 31.640625 42.046875 
Q 28.421875 43.953125 25.203125 43.953125 
Q 22.3125 43.953125 20.015625 42.21875 
Q 17.71875 40.484375 16.75 37.40625 
Q 15.28125 32.71875 15.28125 27.15625 
L 15.28125 0 
z
" id="ArialMT-72"/>
       <path d="M 4.828125 34.859375 
Q 4.828125 52.6875 14.390625 62.765625 
Q 23.96875 72.859375 39.109375 72.859375 
Q 49.03125 72.859375 56.984375 68.109375 
Q 64.9375 63.375 69.109375 54.90625 
Q 73.296875 46.4375 73.296875 35.6875 
Q 73.296875 24.8125 68.890625 16.21875 
Q 64.5 7.625 56.4375 3.203125 
Q 48.390625 -1.21875 39.0625 -1.21875 
Q 28.953125 -1.21875 20.984375 3.65625 
Q 13.03125 8.546875 8.921875 16.984375 
Q 4.828125 25.4375 4.828125 34.859375 
M 14.59375 34.71875 
Q 14.59375 21.78125 21.546875 14.328125 
Q 28.515625 6.890625 39.015625 6.890625 
Q 49.703125 6.890625 56.609375 14.40625 
Q 63.53125 21.921875 63.53125 35.75 
Q 63.53125 44.484375 60.578125 51 
Q 57.625 57.515625 51.921875 61.109375 
Q 46.234375 64.703125 39.15625 64.703125 
Q 29.109375 64.703125 21.84375 57.78125 
Q 14.59375 50.875 14.59375 34.71875 
" id="ArialMT-4f"/>
      </defs>
      <g style="fill:#555555;" transform="translate(104.571875 333.444692665)scale(0.2 -0.2)">
       <use xlink:href="#ArialMT-4f"/>
       <use x="77.783203125" xlink:href="#ArialMT-74"/>
       <use x="105.56640625" xlink:href="#ArialMT-68"/>
       <use x="161.181640625" xlink:href="#ArialMT-65"/>
       <use x="216.796875" xlink:href="#ArialMT-72"/>
       <use x="250.09765625" xlink:href="#ArialMT-20"/>
       <use x="277.880859375" xlink:href="#ArialMT-61"/>
       <use x="333.49609375" xlink:href="#ArialMT-78"/>
       <use x="383.49609375" xlink:href="#ArialMT-65"/>
       <use x="439.111328125" xlink:href="#ArialMT-73"/>
      </g>
     </g>
    </g>
    <g id="ytick_15">
     <g id="line2d_126">
      <g>
       <use style="fill:#555555;stroke:#555555;stroke-width:0.5;" x="206.3875" xlink:href="#mef96f3ec31" y="298.323966942"/>
      </g>
     </g>
     <g id="line2d_127">
      <g>
       <use style="fill:#555555;stroke:#555555;stroke-width:0.5;" x="1069.2" xlink:href="#mef96f3ec31" y="298.323966942"/>
      </g>
     </g>
     <g id="text_21">
      <!-- Abs vs. trialnumber -->
      <defs>
       <path d="M -0.140625 0 
L 27.34375 71.578125 
L 37.546875 71.578125 
L 66.84375 0 
L 56.0625 0 
L 47.703125 21.6875 
L 17.78125 21.6875 
L 9.90625 0 
z
M 20.515625 29.390625 
L 44.78125 29.390625 
L 37.3125 49.21875 
Q 33.890625 58.25 32.234375 64.0625 
Q 30.859375 57.171875 28.375 50.390625 
z
" id="ArialMT-41"/>
       <path d="M 14.703125 0 
L 6.546875 0 
L 6.546875 71.578125 
L 15.328125 71.578125 
L 15.328125 46.046875 
Q 20.90625 53.03125 29.546875 53.03125 
Q 34.328125 53.03125 38.59375 51.09375 
Q 42.875 49.171875 45.625 45.671875 
Q 48.390625 42.1875 49.953125 37.25 
Q 51.515625 32.328125 51.515625 26.703125 
Q 51.515625 13.375 44.921875 6.09375 
Q 38.328125 -1.171875 29.109375 -1.171875 
Q 19.921875 -1.171875 14.703125 6.5 
z
M 14.59375 26.3125 
Q 14.59375 17 17.140625 12.84375 
Q 21.296875 6.0625 28.375 6.0625 
Q 34.125 6.0625 38.328125 11.0625 
Q 42.53125 16.0625 42.53125 25.984375 
Q 42.53125 36.140625 38.5 40.96875 
Q 34.46875 45.796875 28.765625 45.796875 
Q 23 45.796875 18.796875 40.796875 
Q 14.59375 35.796875 14.59375 26.3125 
" id="ArialMT-62"/>
       <path d="M 21 0 
L 1.265625 51.859375 
L 10.546875 51.859375 
L 21.6875 20.796875 
Q 23.484375 15.765625 25 10.359375 
Q 26.171875 14.453125 28.265625 20.21875 
L 39.796875 51.859375 
L 48.828125 51.859375 
L 29.203125 0 
z
" id="ArialMT-76"/>
       <path d="M 9.078125 0 
L 9.078125 10.015625 
L 19.09375 10.015625 
L 19.09375 0 
z
" id="ArialMT-2e"/>
       <path d="M 40.578125 0 
L 40.578125 7.625 
Q 34.515625 -1.171875 24.125 -1.171875 
Q 19.53125 -1.171875 15.546875 0.578125 
Q 11.578125 2.34375 9.640625 5 
Q 7.71875 7.671875 6.9375 11.53125 
Q 6.390625 14.109375 6.390625 19.734375 
L 6.390625 51.859375 
L 15.1875 51.859375 
L 15.1875 23.09375 
Q 15.1875 16.21875 15.71875 13.8125 
Q 16.546875 10.359375 19.234375 8.375 
Q 21.921875 6.390625 25.875 6.390625 
Q 29.828125 6.390625 33.296875 8.421875 
Q 36.765625 10.453125 38.203125 13.9375 
Q 39.65625 17.4375 39.65625 24.078125 
L 39.65625 51.859375 
L 48.4375 51.859375 
L 48.4375 0 
z
" id="ArialMT-75"/>
      </defs>
      <g style="fill:#555555;" transform="translate(31.225 303.494279442)scale(0.2 -0.2)">
       <use xlink:href="#ArialMT-41"/>
       <use x="66.69921875" xlink:href="#ArialMT-62"/>
       <use x="122.314453125" xlink:href="#ArialMT-73"/>
       <use x="172.314453125" xlink:href="#ArialMT-20"/>
       <use x="200.09765625" xlink:href="#ArialMT-76"/>
       <use x="250.09765625" xlink:href="#ArialMT-73"/>
       <use x="300.09765625" xlink:href="#ArialMT-2e"/>
       <use x="327.880859375" xlink:href="#ArialMT-20"/>
       <use x="355.6640625" xlink:href="#ArialMT-74"/>
       <use x="383.447265625" xlink:href="#ArialMT-72"/>
       <use x="416.748046875" xlink:href="#ArialMT-69"/>
       <use x="438.96484375" xlink:href="#ArialMT-61"/>
       <use x="494.580078125" xlink:href="#ArialMT-6c"/>
       <use x="516.796875" xlink:href="#ArialMT-6e"/>
       <use x="572.412109375" xlink:href="#ArialMT-75"/>
       <use x="628.02734375" xlink:href="#ArialMT-6d"/>
       <use x="711.328125" xlink:href="#ArialMT-62"/>
       <use x="766.943359375" xlink:href="#ArialMT-65"/>
       <use x="822.55859375" xlink:href="#ArialMT-72"/>
      </g>
     </g>
    </g>
    <g id="ytick_16">
     <g id="line2d_128">
      <g>
       <use style="fill:#555555;stroke:#555555;stroke-width:0.5;" x="206.3875" xlink:href="#mef96f3ec31" y="268.373553719"/>
      </g>
     </g>
     <g id="line2d_129">
      <g>
       <use style="fill:#555555;stroke:#555555;stroke-width:0.5;" x="1069.2" xlink:href="#mef96f3ec31" y="268.373553719"/>
      </g>
     </g>
     <g id="text_22">
      <!-- Abs vs. width -->
      <defs>
       <path d="M 16.15625 0 
L 0.296875 51.859375 
L 9.375 51.859375 
L 17.625 21.921875 
L 20.703125 10.796875 
Q 20.90625 11.625 23.390625 21.484375 
L 31.640625 51.859375 
L 40.671875 51.859375 
L 48.4375 21.78125 
L 51.03125 11.859375 
L 54 21.875 
L 62.890625 51.859375 
L 71.4375 51.859375 
L 55.21875 0 
L 46.09375 0 
L 37.84375 31.0625 
L 35.84375 39.890625 
L 25.34375 0 
z
" id="ArialMT-77"/>
       <path d="M 40.234375 0 
L 40.234375 6.546875 
Q 35.296875 -1.171875 25.734375 -1.171875 
Q 19.53125 -1.171875 14.328125 2.25 
Q 9.125 5.671875 6.265625 11.796875 
Q 3.421875 17.921875 3.421875 25.875 
Q 3.421875 33.640625 6 39.96875 
Q 8.59375 46.296875 13.765625 49.65625 
Q 18.953125 53.03125 25.34375 53.03125 
Q 30.03125 53.03125 33.6875 51.046875 
Q 37.359375 49.078125 39.65625 45.90625 
L 39.65625 71.578125 
L 48.390625 71.578125 
L 48.390625 0 
z
M 12.453125 25.875 
Q 12.453125 15.921875 16.640625 10.984375 
Q 20.84375 6.0625 26.5625 6.0625 
Q 32.328125 6.0625 36.34375 10.765625 
Q 40.375 15.484375 40.375 25.140625 
Q 40.375 35.796875 36.265625 40.765625 
Q 32.171875 45.75 26.171875 45.75 
Q 20.3125 45.75 16.375 40.96875 
Q 12.453125 36.1875 12.453125 25.875 
" id="ArialMT-64"/>
      </defs>
      <g style="fill:#555555;" transform="translate(84.56875 273.543866219)scale(0.2 -0.2)">
       <use xlink:href="#ArialMT-41"/>
       <use x="66.69921875" xlink:href="#ArialMT-62"/>
       <use x="122.314453125" xlink:href="#ArialMT-73"/>
       <use x="172.314453125" xlink:href="#ArialMT-20"/>
       <use x="200.09765625" xlink:href="#ArialMT-76"/>
       <use x="250.09765625" xlink:href="#ArialMT-73"/>
       <use x="300.09765625" xlink:href="#ArialMT-2e"/>
       <use x="327.880859375" xlink:href="#ArialMT-20"/>
       <use x="355.6640625" xlink:href="#ArialMT-77"/>
       <use x="427.880859375" xlink:href="#ArialMT-69"/>
       <use x="450.09765625" xlink:href="#ArialMT-64"/>
       <use x="505.712890625" xlink:href="#ArialMT-74"/>
       <use x="533.49609375" xlink:href="#ArialMT-68"/>
      </g>
     </g>
    </g>
    <g id="ytick_17">
     <g id="line2d_130">
      <g>
       <use style="fill:#555555;stroke:#555555;stroke-width:0.5;" x="206.3875" xlink:href="#mef96f3ec31" y="238.423140496"/>
      </g>
     </g>
     <g id="line2d_131">
      <g>
       <use style="fill:#555555;stroke:#555555;stroke-width:0.5;" x="1069.2" xlink:href="#mef96f3ec31" y="238.423140496"/>
      </g>
     </g>
     <g id="text_23">
      <!-- Abs vs. concentration -->
      <defs>
       <path d="M 3.328125 25.921875 
Q 3.328125 40.328125 11.328125 47.265625 
Q 18.015625 53.03125 27.640625 53.03125 
Q 38.328125 53.03125 45.109375 46.015625 
Q 51.90625 39.015625 51.90625 26.65625 
Q 51.90625 16.65625 48.90625 10.90625 
Q 45.90625 5.171875 40.15625 2 
Q 34.421875 -1.171875 27.640625 -1.171875 
Q 16.75 -1.171875 10.03125 5.8125 
Q 3.328125 12.796875 3.328125 25.921875 
M 12.359375 25.921875 
Q 12.359375 15.96875 16.703125 11.015625 
Q 21.046875 6.0625 27.640625 6.0625 
Q 34.1875 6.0625 38.53125 11.03125 
Q 42.875 16.015625 42.875 26.21875 
Q 42.875 35.84375 38.5 40.796875 
Q 34.125 45.75 27.640625 45.75 
Q 21.046875 45.75 16.703125 40.8125 
Q 12.359375 35.890625 12.359375 25.921875 
" id="ArialMT-6f"/>
      </defs>
      <g style="fill:#555555;" transform="translate(11.1875 243.593452996)scale(0.2 -0.2)">
       <use xlink:href="#ArialMT-41"/>
       <use x="66.69921875" xlink:href="#ArialMT-62"/>
       <use x="122.314453125" xlink:href="#ArialMT-73"/>
       <use x="172.314453125" xlink:href="#ArialMT-20"/>
       <use x="200.09765625" xlink:href="#ArialMT-76"/>
       <use x="250.09765625" xlink:href="#ArialMT-73"/>
       <use x="300.09765625" xlink:href="#ArialMT-2e"/>
       <use x="327.880859375" xlink:href="#ArialMT-20"/>
       <use x="355.6640625" xlink:href="#ArialMT-63"/>
       <use x="405.6640625" xlink:href="#ArialMT-6f"/>
       <use x="461.279296875" xlink:href="#ArialMT-6e"/>
       <use x="516.89453125" xlink:href="#ArialMT-63"/>
       <use x="566.89453125" xlink:href="#ArialMT-65"/>
       <use x="622.509765625" xlink:href="#ArialMT-6e"/>
       <use x="678.125" xlink:href="#ArialMT-74"/>
       <use x="705.908203125" xlink:href="#ArialMT-72"/>
       <use x="739.208984375" xlink:href="#ArialMT-61"/>
       <use x="794.82421875" xlink:href="#ArialMT-74"/>
       <use x="822.607421875" xlink:href="#ArialMT-69"/>
       <use x="844.82421875" xlink:href="#ArialMT-6f"/>
       <use x="900.439453125" xlink:href="#ArialMT-6e"/>
      </g>
     </g>
    </g>
    <g id="ytick_18">
     <g id="line2d_132">
      <g>
       <use style="fill:#555555;stroke:#555555;stroke-width:0.5;" x="206.3875" xlink:href="#mef96f3ec31" y="208.472727273"/>
      </g>
     </g>
     <g id="line2d_133">
      <g>
       <use style="fill:#555555;stroke:#555555;stroke-width:0.5;" x="1069.2" xlink:href="#mef96f3ec31" y="208.472727273"/>
      </g>
     </g>
     <g id="text_24">
      <!-- Graph add/del -->
      <defs>
       <path d="M 0 -1.21875 
L 20.75 72.796875 
L 27.78125 72.796875 
L 7.078125 -1.21875 
z
" id="ArialMT-2f"/>
       <path d="M 6.59375 -19.875 
L 6.59375 51.859375 
L 14.59375 51.859375 
L 14.59375 45.125 
Q 17.4375 49.078125 21 51.046875 
Q 24.5625 53.03125 29.640625 53.03125 
Q 36.28125 53.03125 41.359375 49.609375 
Q 46.4375 46.1875 49.015625 39.953125 
Q 51.609375 33.734375 51.609375 26.3125 
Q 51.609375 18.359375 48.75 11.984375 
Q 45.90625 5.609375 40.453125 2.21875 
Q 35.015625 -1.171875 29 -1.171875 
Q 24.609375 -1.171875 21.109375 0.6875 
Q 17.625 2.546875 15.375 5.375 
L 15.375 -19.875 
z
M 14.546875 25.640625 
Q 14.546875 15.625 18.59375 10.84375 
Q 22.65625 6.0625 28.421875 6.0625 
Q 34.28125 6.0625 38.453125 11.015625 
Q 42.625 15.96875 42.625 26.375 
Q 42.625 36.28125 38.546875 41.203125 
Q 34.46875 46.140625 28.8125 46.140625 
Q 23.1875 46.140625 18.859375 40.890625 
Q 14.546875 35.640625 14.546875 25.640625 
" id="ArialMT-70"/>
       <path d="M 41.21875 28.078125 
L 41.21875 36.46875 
L 71.53125 36.53125 
L 71.53125 9.96875 
Q 64.546875 4.390625 57.125 1.578125 
Q 49.703125 -1.21875 41.890625 -1.21875 
Q 31.34375 -1.21875 22.71875 3.296875 
Q 14.109375 7.8125 9.71875 16.359375 
Q 5.328125 24.90625 5.328125 35.453125 
Q 5.328125 45.90625 9.6875 54.953125 
Q 14.0625 64.015625 22.265625 68.40625 
Q 30.46875 72.796875 41.15625 72.796875 
Q 48.921875 72.796875 55.1875 70.28125 
Q 61.46875 67.78125 65.03125 63.28125 
Q 68.609375 58.796875 70.453125 51.5625 
L 61.921875 49.21875 
Q 60.296875 54.6875 57.90625 57.8125 
Q 55.515625 60.9375 51.0625 62.8125 
Q 46.625 64.703125 41.21875 64.703125 
Q 34.71875 64.703125 29.984375 62.71875 
Q 25.25 60.75 22.34375 57.515625 
Q 19.4375 54.296875 17.828125 50.4375 
Q 15.09375 43.796875 15.09375 36.03125 
Q 15.09375 26.46875 18.390625 20.015625 
Q 21.6875 13.578125 27.984375 10.453125 
Q 34.28125 7.328125 41.359375 7.328125 
Q 47.515625 7.328125 53.375 9.6875 
Q 59.234375 12.0625 62.25 14.75 
L 62.25 28.078125 
z
" id="ArialMT-47"/>
      </defs>
      <g style="fill:#555555;" transform="translate(75.640625 213.764914773)scale(0.2 -0.2)">
       <use xlink:href="#ArialMT-47"/>
       <use x="77.783203125" xlink:href="#ArialMT-72"/>
       <use x="111.083984375" xlink:href="#ArialMT-61"/>
       <use x="166.69921875" xlink:href="#ArialMT-70"/>
       <use x="222.314453125" xlink:href="#ArialMT-68"/>
       <use x="277.9296875" xlink:href="#ArialMT-20"/>
       <use x="305.712890625" xlink:href="#ArialMT-61"/>
       <use x="361.328125" xlink:href="#ArialMT-64"/>
       <use x="416.943359375" xlink:href="#ArialMT-64"/>
       <use x="472.55859375" xlink:href="#ArialMT-2f"/>
       <use x="500.341796875" xlink:href="#ArialMT-64"/>
       <use x="555.95703125" xlink:href="#ArialMT-65"/>
       <use x="611.572265625" xlink:href="#ArialMT-6c"/>
      </g>
     </g>
    </g>
    <g id="ytick_19">
     <g id="line2d_134">
      <g>
       <use style="fill:#555555;stroke:#555555;stroke-width:0.5;" x="206.3875" xlink:href="#mef96f3ec31" y="178.52231405"/>
      </g>
     </g>
     <g id="line2d_135">
      <g>
       <use style="fill:#555555;stroke:#555555;stroke-width:0.5;" x="1069.2" xlink:href="#mef96f3ec31" y="178.52231405"/>
      </g>
     </g>
    </g>
    <g id="ytick_20">
     <g id="line2d_136">
      <g>
       <use style="fill:#555555;stroke:#555555;stroke-width:0.5;" x="206.3875" xlink:href="#mef96f3ec31" y="148.571900826"/>
      </g>
     </g>
     <g id="line2d_137">
      <g>
       <use style="fill:#555555;stroke:#555555;stroke-width:0.5;" x="1069.2" xlink:href="#mef96f3ec31" y="148.571900826"/>
      </g>
     </g>
     <g id="text_25">
      <!-- Record -->
      <defs>
       <path d="M 7.859375 0 
L 7.859375 71.578125 
L 39.59375 71.578125 
Q 49.171875 71.578125 54.140625 69.640625 
Q 59.125 67.71875 62.109375 62.828125 
Q 65.09375 57.953125 65.09375 52.046875 
Q 65.09375 44.4375 60.15625 39.203125 
Q 55.21875 33.984375 44.921875 32.5625 
Q 48.6875 30.765625 50.640625 29 
Q 54.78125 25.203125 58.5 19.484375 
L 70.953125 0 
L 59.03125 0 
L 49.5625 14.890625 
Q 45.40625 21.34375 42.71875 24.75 
Q 40.046875 28.171875 37.921875 29.53125 
Q 35.796875 30.90625 33.59375 31.453125 
Q 31.984375 31.78125 28.328125 31.78125 
L 17.328125 31.78125 
L 17.328125 0 
z
M 17.328125 39.984375 
L 37.703125 39.984375 
Q 44.1875 39.984375 47.84375 41.328125 
Q 51.515625 42.671875 53.421875 45.625 
Q 55.328125 48.578125 55.328125 52.046875 
Q 55.328125 57.125 51.640625 60.390625 
Q 47.953125 63.671875 39.984375 63.671875 
L 17.328125 63.671875 
z
" id="ArialMT-52"/>
      </defs>
      <g style="fill:#555555;" transform="translate(137.91875 153.742213326)scale(0.2 -0.2)">
       <use xlink:href="#ArialMT-52"/>
       <use x="72.216796875" xlink:href="#ArialMT-65"/>
       <use x="127.83203125" xlink:href="#ArialMT-63"/>
       <use x="177.83203125" xlink:href="#ArialMT-6f"/>
       <use x="233.447265625" xlink:href="#ArialMT-72"/>
       <use x="266.748046875" xlink:href="#ArialMT-64"/>
      </g>
     </g>
    </g>
    <g id="ytick_21">
     <g id="line2d_138">
      <g>
       <use style="fill:#555555;stroke:#555555;stroke-width:0.5;" x="206.3875" xlink:href="#mef96f3ec31" y="118.621487603"/>
      </g>
     </g>
     <g id="line2d_139">
      <g>
       <use style="fill:#555555;stroke:#555555;stroke-width:0.5;" x="1069.2" xlink:href="#mef96f3ec31" y="118.621487603"/>
      </g>
     </g>
    </g>
    <g id="ytick_22">
     <g id="line2d_140">
      <g>
       <use style="fill:#555555;stroke:#555555;stroke-width:0.5;" x="206.3875" xlink:href="#mef96f3ec31" y="88.6710743802"/>
      </g>
     </g>
     <g id="line2d_141">
      <g>
       <use style="fill:#555555;stroke:#555555;stroke-width:0.5;" x="1069.2" xlink:href="#mef96f3ec31" y="88.6710743802"/>
      </g>
     </g>
     <g id="text_26">
      <!-- Wavelength -->
      <defs>
       <path d="M 20.21875 0 
L 1.21875 71.578125 
L 10.9375 71.578125 
L 21.828125 24.65625 
Q 23.578125 17.28125 24.859375 10.015625 
Q 27.59375 21.484375 28.078125 23.25 
L 41.703125 71.578125 
L 53.125 71.578125 
L 63.375 35.359375 
Q 67.234375 21.875 68.953125 10.015625 
Q 70.3125 16.796875 72.515625 25.59375 
L 83.734375 71.578125 
L 93.265625 71.578125 
L 73.640625 0 
L 64.5 0 
L 49.421875 54.546875 
Q 47.515625 61.375 47.171875 62.9375 
Q 46.046875 58.015625 45.0625 54.546875 
L 29.890625 0 
z
" id="ArialMT-57"/>
      </defs>
      <g style="fill:#555555;" transform="translate(96.7875 93.7241993802)scale(0.2 -0.2)">
       <use xlink:href="#ArialMT-57"/>
       <use x="94.337890625" xlink:href="#ArialMT-61"/>
       <use x="149.953125" xlink:href="#ArialMT-76"/>
       <use x="199.953125" xlink:href="#ArialMT-65"/>
       <use x="255.568359375" xlink:href="#ArialMT-6c"/>
       <use x="277.78515625" xlink:href="#ArialMT-65"/>
       <use x="333.400390625" xlink:href="#ArialMT-6e"/>
       <use x="389.015625" xlink:href="#ArialMT-67"/>
       <use x="444.630859375" xlink:href="#ArialMT-74"/>
       <use x="472.4140625" xlink:href="#ArialMT-68"/>
      </g>
     </g>
    </g>
    <g id="ytick_23">
     <g id="line2d_142">
      <g>
       <use style="fill:#555555;stroke:#555555;stroke-width:0.5;" x="206.3875" xlink:href="#mef96f3ec31" y="58.720661157"/>
      </g>
     </g>
     <g id="line2d_143">
      <g>
       <use style="fill:#555555;stroke:#555555;stroke-width:0.5;" x="1069.2" xlink:href="#mef96f3ec31" y="58.720661157"/>
      </g>
     </g>
     <g id="text_27">
      <!-- Width -->
      <g style="fill:#555555;" transform="translate(151.265625 63.890973657)scale(0.2 -0.2)">
       <use xlink:href="#ArialMT-57"/>
       <use x="94.384765625" xlink:href="#ArialMT-69"/>
       <use x="116.6015625" xlink:href="#ArialMT-64"/>
       <use x="172.216796875" xlink:href="#ArialMT-74"/>
       <use x="200.0" xlink:href="#ArialMT-68"/>
      </g>
     </g>
    </g>
    <g id="ytick_24">
     <g id="line2d_144">
      <g>
       <use style="fill:#555555;stroke:#555555;stroke-width:0.5;" x="206.3875" xlink:href="#mef96f3ec31" y="28.7702479339"/>
      </g>
     </g>
     <g id="line2d_145">
      <g>
       <use style="fill:#555555;stroke:#555555;stroke-width:0.5;" x="1069.2" xlink:href="#mef96f3ec31" y="28.7702479339"/>
      </g>
     </g>
     <g id="text_28">
      <!-- Concentration -->
      <g style="fill:#555555;" transform="translate(77.875 33.9405604339)scale(0.2 -0.2)">
       <use xlink:href="#ArialMT-43"/>
       <use x="72.216796875" xlink:href="#ArialMT-6f"/>
       <use x="127.83203125" xlink:href="#ArialMT-6e"/>
       <use x="183.447265625" xlink:href="#ArialMT-63"/>
       <use x="233.447265625" xlink:href="#ArialMT-65"/>
       <use x="289.0625" xlink:href="#ArialMT-6e"/>
       <use x="344.677734375" xlink:href="#ArialMT-74"/>
       <use x="372.4609375" xlink:href="#ArialMT-72"/>
       <use x="405.76171875" xlink:href="#ArialMT-61"/>
       <use x="461.376953125" xlink:href="#ArialMT-74"/>
       <use x="489.16015625" xlink:href="#ArialMT-69"/>
       <use x="511.376953125" xlink:href="#ArialMT-6f"/>
       <use x="566.9921875" xlink:href="#ArialMT-6e"/>
      </g>
     </g>
    </g>
   </g>
   <g id="BrokenBarHCollection_1">
    <path clip-path="url(#p5f51c8ddc5)" d="M 434.803575 373.2 
L 434.803575 343.249587 
L 441.47007 343.249587 
L 441.47007 373.2 
L 434.803575 373.2 
z
" style="fill:#737373;fill-opacity:0.9;stroke:#eeeeee;stroke-opacity:0.9;stroke-width:0.5;"/>
    <path clip-path="url(#p5f51c8ddc5)" d="M 443.539129 373.2 
L 443.539129 343.249587 
L 448.96808 343.249587 
L 448.96808 373.2 
L 443.539129 373.2 
z
" style="fill:#737373;fill-opacity:0.9;stroke:#eeeeee;stroke-opacity:0.9;stroke-width:0.5;"/>
    <path clip-path="url(#p5f51c8ddc5)" d="M 467.888205 373.2 
L 467.888205 343.249587 
L 473.699501 343.249587 
L 473.699501 373.2 
L 467.888205 373.2 
z
" style="fill:#737373;fill-opacity:0.9;stroke:#eeeeee;stroke-opacity:0.9;stroke-width:0.5;"/>
    <path clip-path="url(#p5f51c8ddc5)" d="M 475.227187 373.2 
L 475.227187 343.249587 
L 483.132918 343.249587 
L 483.132918 373.2 
L 475.227187 373.2 
z
" style="fill:#737373;fill-opacity:0.9;stroke:#eeeeee;stroke-opacity:0.9;stroke-width:0.5;"/>
    <path clip-path="url(#p5f51c8ddc5)" d="M 500.040659 373.2 
L 500.040659 343.249587 
L 507.021827 343.249587 
L 507.021827 373.2 
L 500.040659 373.2 
z
" style="fill:#737373;fill-opacity:0.9;stroke:#eeeeee;stroke-opacity:0.9;stroke-width:0.5;"/>
    <path clip-path="url(#p5f51c8ddc5)" d="M 507.021827 373.2 
L 507.021827 343.249587 
L 513.394797 343.249587 
L 513.394797 373.2 
L 507.021827 373.2 
z
" style="fill:#737373;fill-opacity:0.9;stroke:#eeeeee;stroke-opacity:0.9;stroke-width:0.5;"/>
    <path clip-path="url(#p5f51c8ddc5)" d="M 517.59128 373.2 
L 517.59128 343.249587 
L 530.788928 343.249587 
L 530.788928 373.2 
L 517.59128 373.2 
z
" style="fill:#737373;fill-opacity:0.9;stroke:#eeeeee;stroke-opacity:0.9;stroke-width:0.5;"/>
    <path clip-path="url(#p5f51c8ddc5)" d="M 535.448116 373.2 
L 535.448116 343.249587 
L 539.564239 343.249587 
L 539.564239 373.2 
L 535.448116 373.2 
z
" style="fill:#737373;fill-opacity:0.9;stroke:#eeeeee;stroke-opacity:0.9;stroke-width:0.5;"/>
    <path clip-path="url(#p5f51c8ddc5)" d="M 555.904385 373.2 
L 555.904385 343.249587 
L 566.010288 343.249587 
L 566.010288 373.2 
L 555.904385 373.2 
z
" style="fill:#737373;fill-opacity:0.9;stroke:#eeeeee;stroke-opacity:0.9;stroke-width:0.5;"/>
   </g>
   <g id="BrokenBarHCollection_2">
    <path clip-path="url(#p5f51c8ddc5)" d="M 453.166255 343.249587 
L 453.166255 313.299174 
L 464.864978 313.299174 
L 464.864978 343.249587 
L 453.166255 343.249587 
z
" style="fill:#2a2d34;fill-opacity:0.9;stroke:#eeeeee;stroke-opacity:0.9;stroke-width:0.5;"/>
    <path clip-path="url(#p5f51c8ddc5)" d="M 515.898645 343.249587 
L 515.898645 313.299174 
L 530.788928 313.299174 
L 530.788928 343.249587 
L 515.898645 343.249587 
z
" style="fill:#2a2d34;fill-opacity:0.9;stroke:#eeeeee;stroke-opacity:0.9;stroke-width:0.5;"/>
   </g>
   <g id="BrokenBarHCollection_3">
    <path clip-path="url(#p5f51c8ddc5)" d="M 429.986205 283.34876 
L 429.986205 253.398347 
L 441.47007 253.398347 
L 441.47007 283.34876 
L 429.986205 283.34876 
z
" style="fill:#ec7d27;fill-opacity:0.9;stroke:#eeeeee;stroke-opacity:0.9;stroke-width:0.5;"/>
    <path clip-path="url(#p5f51c8ddc5)" d="M 464.864978 283.34876 
L 464.864978 253.398347 
L 473.699501 253.398347 
L 473.699501 283.34876 
L 464.864978 283.34876 
z
" style="fill:#ec7d27;fill-opacity:0.9;stroke:#eeeeee;stroke-opacity:0.9;stroke-width:0.5;"/>
   </g>
   <g id="BrokenBarHCollection_4">
    <path clip-path="url(#p5f51c8ddc5)" d="M 441.47007 253.398347 
L 441.47007 223.447934 
L 448.96808 223.447934 
L 448.96808 253.398347 
L 441.47007 253.398347 
z
" style="fill:#5c8dfc;fill-opacity:0.9;stroke:#eeeeee;stroke-opacity:0.9;stroke-width:0.5;"/>
    <path clip-path="url(#p5f51c8ddc5)" d="M 473.699501 253.398347 
L 473.699501 223.447934 
L 513.394797 223.447934 
L 513.394797 253.398347 
L 473.699501 253.398347 
z
" style="fill:#5c8dfc;fill-opacity:0.9;stroke:#eeeeee;stroke-opacity:0.9;stroke-width:0.5;"/>
    <path clip-path="url(#p5f51c8ddc5)" d="M 530.788928 253.398347 
L 530.788928 223.447934 
L 567.702077 223.447934 
L 567.702077 253.398347 
L 530.788928 253.398347 
z
" style="fill:#5c8dfc;fill-opacity:0.9;stroke:#eeeeee;stroke-opacity:0.9;stroke-width:0.5;"/>
   </g>
   <g id="BrokenBarHCollection_5">
    <defs>
     <path d="M 483.132918 -208.552066 
L 483.132918 -238.502479 
L 500.040659 -238.502479 
L 500.040659 -208.552066 
L 483.132918 -208.552066 
z
" id="m657bae83e6" style="stroke:#eeeeee;stroke-opacity:0.4;stroke-width:0.5;"/>
    </defs>
    <g clip-path="url(#p5f51c8ddc5)">
     <use style="fill:#2a2d34;fill-opacity:0.4;stroke:#eeeeee;stroke-opacity:0.4;stroke-width:0.5;" x="0.0" xlink:href="#m657bae83e6" y="432.0"/>
    </g>
   </g>
   <g id="BrokenBarHCollection_6">
    <defs>
     <path d="M 206.3875 -238.502479 
L 206.3875 -268.452893 
L 1069.2 -268.452893 
L 1069.2 -238.502479 
L 206.3875 -238.502479 
z
" id="md43e070154" style="stroke:#eeeeee;stroke-width:0.5;"/>
    </defs>
    <g clip-path="url(#p5f51c8ddc5)">
     <use style="fill:#ffffff;stroke:#eeeeee;stroke-width:0.5;" x="0.0" xlink:href="#md43e070154" y="432.0"/>
    </g>
   </g>
   <g id="BrokenBarHCollection_7">
    <path clip-path="url(#p5f51c8ddc5)" d="M 337.389506 163.547107 
L 337.389506 133.596694 
L 340.773085 133.596694 
L 340.773085 163.547107 
L 337.389506 163.547107 
z
" style="fill:#2a2d34;fill-opacity:0.9;stroke:#eeeeee;stroke-opacity:0.9;stroke-width:0.5;"/>
    <path clip-path="url(#p5f51c8ddc5)" d="M 344.745406 163.547107 
L 344.745406 133.596694 
L 348.128984 133.596694 
L 348.128984 163.547107 
L 344.745406 163.547107 
z
" style="fill:#2a2d34;fill-opacity:0.9;stroke:#eeeeee;stroke-opacity:0.9;stroke-width:0.5;"/>
    <path clip-path="url(#p5f51c8ddc5)" d="M 347.573231 163.547107 
L 347.573231 133.596694 
L 350.95681 133.596694 
L 350.95681 163.547107 
L 347.573231 163.547107 
z
" style="fill:#2a2d34;fill-opacity:0.9;stroke:#eeeeee;stroke-opacity:0.9;stroke-width:0.5;"/>
    <path clip-path="url(#p5f51c8ddc5)" d="M 353.7508 163.547107 
L 353.7508 133.596694 
L 357.134378 133.596694 
L 357.134378 163.547107 
L 353.7508 163.547107 
z
" style="fill:#2a2d34;fill-opacity:0.9;stroke:#eeeeee;stroke-opacity:0.9;stroke-width:0.5;"/>
    <path clip-path="url(#p5f51c8ddc5)" d="M 361.034798 163.547107 
L 361.034798 133.596694 
L 364.418377 133.596694 
L 364.418377 163.547107 
L 361.034798 163.547107 
z
" style="fill:#2a2d34;fill-opacity:0.9;stroke:#eeeeee;stroke-opacity:0.9;stroke-width:0.5;"/>
    <path clip-path="url(#p5f51c8ddc5)" d="M 363.247658 163.547107 
L 363.247658 133.596694 
L 366.631237 133.596694 
L 366.631237 163.547107 
L 363.247658 163.547107 
z
" style="fill:#2a2d34;fill-opacity:0.9;stroke:#eeeeee;stroke-opacity:0.9;stroke-width:0.5;"/>
    <path clip-path="url(#p5f51c8ddc5)" d="M 390.726545 163.547107 
L 390.726545 133.596694 
L 394.110123 133.596694 
L 394.110123 163.547107 
L 390.726545 163.547107 
z
" style="fill:#2a2d34;fill-opacity:0.9;stroke:#eeeeee;stroke-opacity:0.9;stroke-width:0.5;"/>
    <path clip-path="url(#p5f51c8ddc5)" d="M 396.054835 163.547107 
L 396.054835 133.596694 
L 399.438413 133.596694 
L 399.438413 163.547107 
L 396.054835 163.547107 
z
" style="fill:#2a2d34;fill-opacity:0.9;stroke:#eeeeee;stroke-opacity:0.9;stroke-width:0.5;"/>
    <path clip-path="url(#p5f51c8ddc5)" d="M 399.437567 163.547107 
L 399.437567 133.596694 
L 402.821146 133.596694 
L 402.821146 163.547107 
L 399.437567 163.547107 
z
" style="fill:#2a2d34;fill-opacity:0.9;stroke:#eeeeee;stroke-opacity:0.9;stroke-width:0.5;"/>
   </g>
   <g id="BrokenBarHCollection_8">
    <defs>
     <path d="M 206.3875 -298.403306 
L 206.3875 -328.353719 
L 1069.2 -328.353719 
L 1069.2 -298.403306 
L 206.3875 -298.403306 
z
" id="m0a93785338" style="stroke:#eeeeee;stroke-width:0.5;"/>
    </defs>
    <g clip-path="url(#p5f51c8ddc5)">
     <use style="fill:#ffffff;stroke:#eeeeee;stroke-width:0.5;" x="0.0" xlink:href="#m0a93785338" y="432.0"/>
    </g>
   </g>
   <g id="BrokenBarHCollection_9">
    <path clip-path="url(#p5f51c8ddc5)" d="M 235.786567 103.646281 
L 235.786567 73.695868 
L 241.296725 73.695868 
L 241.296725 103.646281 
L 235.786567 103.646281 
z
" style="fill:#9b0017;fill-opacity:0.3;stroke:#eeeeee;stroke-opacity:0.3;stroke-width:0.5;"/>
    <path clip-path="url(#p5f51c8ddc5)" d="M 253.453076 103.646281 
L 253.453076 73.695868 
L 268.987085 73.695868 
L 268.987085 103.646281 
L 253.453076 103.646281 
z
" style="fill:#9b0017;fill-opacity:0.3;stroke:#eeeeee;stroke-opacity:0.3;stroke-width:0.5;"/>
    <path clip-path="url(#p5f51c8ddc5)" d="M 290.304475 103.646281 
L 290.304475 73.695868 
L 301.524421 73.695868 
L 301.524421 103.646281 
L 290.304475 103.646281 
z
" style="fill:#9b0017;fill-opacity:0.3;stroke:#eeeeee;stroke-opacity:0.3;stroke-width:0.5;"/>
    <path clip-path="url(#p5f51c8ddc5)" d="M 316.514519 103.646281 
L 316.514519 73.695868 
L 319.181625 73.695868 
L 319.181625 103.646281 
L 316.514519 103.646281 
z
" style="fill:#9b0017;fill-opacity:0.3;stroke:#eeeeee;stroke-opacity:0.3;stroke-width:0.5;"/>
    <path clip-path="url(#p5f51c8ddc5)" d="M 388.653257 103.646281 
L 388.653257 73.695868 
L 390.726545 73.695868 
L 390.726545 103.646281 
L 388.653257 103.646281 
z
" style="fill:#9b0017;fill-opacity:0.3;stroke:#eeeeee;stroke-opacity:0.3;stroke-width:0.5;"/>
    <path clip-path="url(#p5f51c8ddc5)" d="M 391.496309 103.646281 
L 391.496309 73.695868 
L 396.054835 73.695868 
L 396.054835 103.646281 
L 391.496309 103.646281 
z
" style="fill:#9b0017;fill-opacity:0.3;stroke:#eeeeee;stroke-opacity:0.3;stroke-width:0.5;"/>
    <path clip-path="url(#p5f51c8ddc5)" d="M 396.536995 103.646281 
L 396.536995 73.695868 
L 399.437567 73.695868 
L 399.437567 103.646281 
L 396.536995 103.646281 
z
" style="fill:#9b0017;fill-opacity:0.3;stroke:#eeeeee;stroke-opacity:0.3;stroke-width:0.5;"/>
   </g>
   <g id="BrokenBarHCollection_10">
    <path clip-path="url(#p5f51c8ddc5)" d="M 241.296725 73.695868 
L 241.296725 43.745455 
L 245.181073 43.745455 
L 245.181073 73.695868 
L 241.296725 73.695868 
z
" style="fill:#ec7d27;fill-opacity:0.3;stroke:#eeeeee;stroke-opacity:0.3;stroke-width:0.5;"/>
    <path clip-path="url(#p5f51c8ddc5)" d="M 268.987085 73.695868 
L 268.987085 43.745455 
L 274.300149 43.745455 
L 274.300149 73.695868 
L 268.987085 73.695868 
z
" style="fill:#ec7d27;fill-opacity:0.3;stroke:#eeeeee;stroke-opacity:0.3;stroke-width:0.5;"/>
    <path clip-path="url(#p5f51c8ddc5)" d="M 279.475332 73.695868 
L 279.475332 43.745455 
L 290.304475 43.745455 
L 290.304475 73.695868 
L 279.475332 73.695868 
z
" style="fill:#ec7d27;fill-opacity:0.3;stroke:#eeeeee;stroke-opacity:0.3;stroke-width:0.5;"/>
    <path clip-path="url(#p5f51c8ddc5)" d="M 309.483443 73.695868 
L 309.483443 43.745455 
L 316.514519 43.745455 
L 316.514519 73.695868 
L 309.483443 73.695868 
z
" style="fill:#ec7d27;fill-opacity:0.3;stroke:#eeeeee;stroke-opacity:0.3;stroke-width:0.5;"/>
    <path clip-path="url(#p5f51c8ddc5)" d="M 321.847039 73.695868 
L 321.847039 43.745455 
L 324.234999 43.745455 
L 324.234999 73.695868 
L 321.847039 73.695868 
z
" style="fill:#ec7d27;fill-opacity:0.3;stroke:#eeeeee;stroke-opacity:0.3;stroke-width:0.5;"/>
    <path clip-path="url(#p5f51c8ddc5)" d="M 343.264244 73.695868 
L 343.264244 43.745455 
L 344.745406 43.745455 
L 344.745406 73.695868 
L 343.264244 73.695868 
z
" style="fill:#ec7d27;fill-opacity:0.3;stroke:#eeeeee;stroke-opacity:0.3;stroke-width:0.5;"/>
    <path clip-path="url(#p5f51c8ddc5)" d="M 346.560695 73.695868 
L 346.560695 43.745455 
L 347.573231 43.745455 
L 347.573231 73.695868 
L 346.560695 73.695868 
z
" style="fill:#ec7d27;fill-opacity:0.3;stroke:#eeeeee;stroke-opacity:0.3;stroke-width:0.5;"/>
    <path clip-path="url(#p5f51c8ddc5)" d="M 348.401362 73.695868 
L 348.401362 43.745455 
L 351.527789 43.745455 
L 351.527789 73.695868 
L 348.401362 73.695868 
z
" style="fill:#ec7d27;fill-opacity:0.3;stroke:#eeeeee;stroke-opacity:0.3;stroke-width:0.5;"/>
   </g>
   <g id="BrokenBarHCollection_11">
    <path clip-path="url(#p5f51c8ddc5)" d="M 227.915518 43.745455 
L 227.915518 13.795041 
L 233.29287 13.795041 
L 233.29287 43.745455 
L 227.915518 43.745455 
z
" style="fill:#5c8dfc;fill-opacity:0.3;stroke:#eeeeee;stroke-opacity:0.3;stroke-width:0.5;"/>
    <path clip-path="url(#p5f51c8ddc5)" d="M 245.181073 43.745455 
L 245.181073 13.795041 
L 253.453076 13.795041 
L 253.453076 43.745455 
L 245.181073 43.745455 
z
" style="fill:#5c8dfc;fill-opacity:0.3;stroke:#eeeeee;stroke-opacity:0.3;stroke-width:0.5;"/>
    <path clip-path="url(#p5f51c8ddc5)" d="M 301.524421 43.745455 
L 301.524421 13.795041 
L 309.483443 13.795041 
L 309.483443 43.745455 
L 301.524421 43.745455 
z
" style="fill:#5c8dfc;fill-opacity:0.3;stroke:#eeeeee;stroke-opacity:0.3;stroke-width:0.5;"/>
    <path clip-path="url(#p5f51c8ddc5)" d="M 319.181625 43.745455 
L 319.181625 13.795041 
L 321.847039 13.795041 
L 321.847039 43.745455 
L 319.181625 43.745455 
z
" style="fill:#5c8dfc;fill-opacity:0.3;stroke:#eeeeee;stroke-opacity:0.3;stroke-width:0.5;"/>
    <path clip-path="url(#p5f51c8ddc5)" d="M 324.234999 43.745455 
L 324.234999 13.795041 
L 327.591509 13.795041 
L 327.591509 43.745455 
L 324.234999 43.745455 
z
" style="fill:#5c8dfc;fill-opacity:0.3;stroke:#eeeeee;stroke-opacity:0.3;stroke-width:0.5;"/>
    <path clip-path="url(#p5f51c8ddc5)" d="M 351.527789 43.745455 
L 351.527789 13.795041 
L 353.7508 13.795041 
L 353.7508 43.745455 
L 351.527789 43.745455 
z
" style="fill:#5c8dfc;fill-opacity:0.3;stroke:#eeeeee;stroke-opacity:0.3;stroke-width:0.5;"/>
    <path clip-path="url(#p5f51c8ddc5)" d="M 356.11 43.745455 
L 356.11 13.795041 
L 361.034798 13.795041 
L 361.034798 43.745455 
L 356.11 43.745455 
z
" style="fill:#5c8dfc;fill-opacity:0.3;stroke:#eeeeee;stroke-opacity:0.3;stroke-width:0.5;"/>
    <path clip-path="url(#p5f51c8ddc5)" d="M 361.971203 43.745455 
L 361.971203 13.795041 
L 363.247658 13.795041 
L 363.247658 43.745455 
L 361.971203 43.745455 
z
" style="fill:#5c8dfc;fill-opacity:0.3;stroke:#eeeeee;stroke-opacity:0.3;stroke-width:0.5;"/>
    <path clip-path="url(#p5f51c8ddc5)" d="M 365.914764 43.745455 
L 365.914764 13.795041 
L 371.287887 13.795041 
L 371.287887 43.745455 
L 365.914764 43.745455 
z
" style="fill:#5c8dfc;fill-opacity:0.3;stroke:#eeeeee;stroke-opacity:0.3;stroke-width:0.5;"/>
   </g>
   <g id="line2d_146">
    <path clip-path="url(#p5f51c8ddc5)" d="M 483.132918 223.447934 
L 483.132918 219.891322 
L 483.468738 216.334711 
L 484.949899 212.778099 
L 485.289103 212.778099 
L 490.436372 212.778099 
L 494.580409 209.221488 
L 495.136162 205.664876 
L 495.480441 202.108264 
L 496.746745 198.551653 
L 497.023353 194.995041 
L 500.040659 194.995041 
L 500.713991 194.995041 
L 501.75275 194.995041 
L 505.396018 194.995041 
L 507.021827 194.995041 
L 508.014062 194.995041 
L 509.189009 194.995041 
L 509.691471 194.995041 
L 512.089582 194.995041 
L 513.394797 194.995041 
L 515.898645 194.995041 
L 517.59128 194.995041 
L 520.806526 194.995041 
L 521.851206 194.995041 
L 522.624353 194.995041 
L 523.776462 194.995041 
L 527.201489 194.995041 
L 527.896814 194.995041 
L 528.498245 194.995041 
L 530.788928 194.995041 
L 535.448116 194.995041 
L 536.195886 194.995041 
L 537.872449 194.995041 
L 539.564239 194.995041 
L 555.904385 194.995041 
L 557.768737 194.995041 
L 558.743207 194.995041 
L 559.800575 194.995041 
L 566.010288 194.995041 
" style="fill:none;stroke:#2a2d34;stroke-linecap:round;stroke-width:1.5;"/>
   </g>
   <g id="line2d_147">
    <path clip-path="url(#p5f51c8ddc5)" d="M 235.786567 75.193388 
L 235.863544 75.193388 
L 235.882153 75.193388 
L 236.151994 103.646281 
L 236.429447 103.646281 
L 236.539413 79.034529 
L 236.552102 79.034529 
L 236.664606 75.193388 
L 236.912453 75.193388 
L 237.059638 95.466074 
L 237.102779 100.658727 
L 237.436062 101.014388 
L 237.463976 102.721562 
L 237.91653 103.646281 
L 238.572944 103.646281 
L 238.669376 100.303066 
L 238.696445 100.303066 
L 238.865623 99.947405 
L 238.88085 99.591744 
L 239.08894 98.951554 
L 239.332557 98.951554 
L 239.38754 97.88457 
L 239.613394 97.528909 
L 239.73182 98.951554 
L 239.751275 99.591744 
L 253.640019 99.591744 
L 253.766057 95.252678 
L 254.132329 94.897017 
L 254.359029 91.482669 
L 254.600109 90.060025 
L 254.978224 89.704364 
L 255.02644 88.708512 
L 255.249756 88.352851 
L 255.76406 87.712661 
L 255.926472 87.357 
L 256.236915 84.582843 
L 256.404402 84.227182 
L 256.422166 83.871521 
L 257.350112 83.800388 
L 261.480616 80.314909 
L 262.494843 79.461322 
L 267.414566 75.335653 
L 267.515228 75.264521 
L 290.414441 75.193388 
L 290.683435 91.340405 
L 290.830621 92.051727 
L 291.002338 100.303066 
L 291.075085 100.303066 
L 291.102153 103.646281 
L 291.426131 103.646281 
L 291.469271 89.633231 
L 291.60969 75.904711 
L 291.730653 75.193388 
L 291.948048 75.193388 
L 292.340543 95.110413 
L 292.766874 97.528909 
L 293.059553 84.511711 
L 293.129763 83.160198 
L 293.282024 81.381893 
L 293.456278 81.097364 
L 293.566244 78.678868 
L 293.584008 78.678868 
L 293.611922 77.256223 
L 293.891068 77.256223 
L 294.132994 84.15605 
L 294.359693 86.218884 
L 294.903604 103.646281 
L 295.326551 103.646281 
L 295.37815 103.361752 
L 295.604004 103.077223 
L 295.781642 95.110413 
L 295.866232 94.114562 
L 296.062479 85.507562 
L 296.062479 85.507562 
L 296.257881 83.160198 
L 296.534488 75.193388 
L 297.266187 75.193388 
L 297.604545 80.03038 
L 297.813481 75.193388 
L 298.315097 75.193388 
L 298.430984 75.54905 
L 298.551947 75.193388 
L 388.749689 75.193388 
L 388.781833 77.256223 
L 388.984002 103.646281 
L 391.523377 103.646281 
L 391.58259 102.65043 
L 391.717933 98.880421 
L 392.058829 91.980595 
L 392.326131 91.696066 
L 392.355738 90.629083 
L 393.172026 89.91776 
L 393.460476 89.27757 
L 393.483315 86.503413 
L 393.694789 85.792091 
L 393.735392 87.214736 
L 394.147343 87.214736 
L 394.173565 88.921909 
L 394.523766 89.27757 
L 394.730164 88.566248 
L 394.768229 87.854926 
L 394.804603 88.210587 
L 395.3409 87.854926 
L 396.625814 87.854926 
L 396.667263 87.570397 
L 396.779767 75.193388 
L 566.010288 75.193388 
L 566.010288 75.193388 
" style="fill:none;stroke:#9b0017;stroke-linecap:round;stroke-width:1.5;"/>
   </g>
   <g id="line2d_148">
    <path clip-path="url(#p5f51c8ddc5)" d="M 241.296725 64.21157 
L 241.390619 64.21157 
L 241.391465 64.21157 
L 241.460828 60.797223 
L 241.460828 60.797223 
L 241.814412 45.242975 
L 242.093557 45.242975 
L 242.135852 46.760463 
L 242.249202 64.780628 
L 242.477593 73.695868 
L 242.799879 73.695868 
L 242.911537 66.10843 
L 242.911537 66.10843 
L 242.942835 65.16 
L 243.223672 64.021884 
L 243.386084 66.10843 
L 243.446989 66.10843 
L 243.731209 63.642512 
L 243.770966 64.021884 
L 243.927457 64.21157 
L 269.163877 64.21157 
L 269.163877 64.21157 
L 269.319521 62.314711 
L 269.462477 61.935339 
L 269.602896 60.986909 
L 269.953096 55.865388 
L 270.068138 54.916959 
L 270.684795 45.242975 
L 271.503621 45.242975 
L 271.551837 46.381091 
L 271.65842 52.261355 
L 271.660112 52.261355 
L 272.045839 73.695868 
L 272.250546 73.695868 
L 272.365588 55.486017 
L 272.365588 55.486017 
L 272.430722 52.830413 
L 272.587212 52.640727 
L 272.667572 52.830413 
L 272.782614 73.695868 
L 272.947563 73.695868 
L 273.051608 45.242975 
L 273.170033 45.242975 
L 273.214866 61.555967 
L 273.28 73.695868 
L 273.297763 63.073455 
L 273.297763 63.073455 
L 273.391658 45.242975 
L 273.418726 53.399471 
L 273.480477 68.194975 
L 273.52108 57.19319 
L 273.586214 45.242975 
L 279.909276 45.242975 
L 279.97018 46.950149 
L 279.97018 46.950149 
L 280.213798 58.520992 
L 280.400741 58.900364 
L 280.61306 62.314711 
L 280.924349 45.242975 
L 280.938729 46.191405 
L 280.949726 46.191405 
L 281.049542 64.590942 
L 281.1612 68.194975 
L 281.1612 68.194975 
L 281.357447 68.384661 
L 281.389591 68.194975 
L 281.505479 45.242975 
L 281.694959 45.242975 
L 281.795621 69.712463 
L 281.99356 70.281521 
L 282.048543 60.607537 
L 282.166968 45.242975 
L 282.330226 45.242975 
L 282.501097 69.333091 
L 282.514631 68.384661 
L 282.743869 45.242975 
L 282.954496 45.242975 
L 283.011171 57.003504 
L 283.088994 58.710678 
L 283.307234 58.900364 
L 283.401975 64.21157 
L 283.416355 64.970314 
L 283.630366 65.349686 
L 283.753867 68.005289 
L 283.868908 69.333091 
L 283.868908 69.333091 
L 283.908665 70.471207 
L 284.166663 70.660893 
L 284.266479 73.695868 
L 284.80193 73.695868 
L 284.836612 73.506182 
L 284.938965 61.555967 
L 284.952499 61.555967 
L 285.066695 57.572562 
L 285.389827 50.364496 
L 285.419433 50.743868 
L 285.460882 51.692298 
L 285.575078 60.797223 
L 285.646979 63.073455 
L 285.816158 63.073455 
L 285.868603 59.469421 
L 286.039474 59.279736 
L 286.239951 63.832198 
L 286.243335 63.832198 
L 286.60284 64.021884 
L 286.662052 62.694083 
L 286.784707 50.933554 
L 286.874372 49.985124 
L 286.900595 50.17481 
L 286.997873 67.625917 
L 287.028325 69.143405 
L 287.042705 68.384661 
L 287.042705 68.384661 
L 287.150979 46.191405 
L 287.196658 60.607537 
L 287.238107 64.21157 
L 287.265175 60.607537 
L 287.265175 60.607537 
L 287.356532 51.692298 
L 287.380217 56.624132 
L 287.446197 64.780628 
L 287.498642 59.848793 
L 287.602687 45.242975 
L 287.618759 47.329521 
L 287.798935 70.281521 
L 287.861531 65.349686 
L 287.982494 60.797223 
L 288.185509 59.848793 
L 288.195659 60.228165 
L 288.306472 62.883769 
L 288.389369 62.883769 
L 288.407979 63.26314 
L 288.678665 63.452826 
L 288.70658 64.021884 
L 309.531659 64.021884 
L 309.738903 62.314711 
L 309.949531 62.314711 
L 309.949531 62.314711 
L 309.990134 63.073455 
L 310.789504 63.073455 
L 311.09318 63.26314 
L 311.281815 63.073455 
L 311.342719 63.642512 
L 311.458607 63.642512 
L 311.682769 63.832198 
L 311.795273 62.314711 
L 311.994058 62.314711 
L 312.036353 62.694083 
L 312.214837 63.073455 
L 312.345104 63.26314 
L 313.251058 63.26314 
L 313.689231 63.832198 
L 313.698536 63.642512 
L 314.076651 63.26314 
L 314.462379 63.073455 
L 314.90309 63.26314 
L 314.945384 63.832198 
L 321.93332 63.832198 
L 321.978152 64.780628 
L 322.272524 64.780628 
L 322.313972 63.642512 
L 322.509374 63.452826 
L 322.580429 64.590942 
L 343.320919 64.590942 
L 343.362368 62.883769 
L 343.431731 45.242975 
L 346.634288 45.242975 
L 346.711265 60.986909 
L 346.846608 73.695868 
L 348.523171 73.695868 
L 348.60776 68.384661 
L 348.813313 67.815603 
L 348.813313 67.815603 
L 348.847149 66.10843 
L 349.131369 65.918744 
L 349.173664 64.970314 
L 349.484107 64.21157 
L 566.010288 64.21157 
L 566.010288 64.21157 
" style="fill:none;stroke:#ec7d27;stroke-linecap:round;stroke-width:1.5;"/>
   </g>
   <g id="line2d_149">
    <path clip-path="url(#p5f51c8ddc5)" d="M 227.915518 29.519008 
L 229.009259 27.66957 
L 229.872918 27.527306 
L 229.988805 16.967849 
L 230.100464 15.292562 
L 230.514952 15.292562 
L 230.534407 15.937658 
L 230.534407 15.937658 
L 230.648603 43.745455 
L 230.828779 43.745455 
L 231.034331 15.292562 
L 231.142606 15.292562 
L 231.237346 43.745455 
L 245.280888 43.745455 
L 245.491516 38.336952 
L 246.405928 25.717113 
L 246.551422 24.686922 
L 246.656313 22.884088 
L 246.679998 22.62654 
L 247.000592 22.111445 
L 247.554653 17.990681 
L 247.65616 16.445395 
L 247.748363 16.445395 
L 248.156084 16.187847 
L 248.2043 17.990681 
L 248.628939 43.745455 
L 249.002824 43.745455 
L 249.104332 38.852048 
L 249.215144 25.717113 
L 249.380939 15.292562 
L 301.62762 15.292562 
L 301.844169 24.049185 
L 302.023498 34.86619 
L 302.195215 35.381285 
L 302.473514 39.244501 
L 302.789879 39.502049 
L 302.97513 41.047335 
L 302.97513 40.789788 
L 303.29657 41.562431 
L 303.464057 43.745455 
L 304.432606 43.745455 
L 304.606015 38.729406 
L 304.706676 38.21431 
L 305.144004 32.54826 
L 305.240436 32.290712 
L 305.314028 31.002974 
L 305.483207 31.002974 
L 305.522119 30.487878 
L 305.804647 30.230331 
L 306.454294 30.230331 
L 307.203757 29.661273 
L 319.181625 29.519008 
L 319.598651 29.376744 
L 324.234999 29.234479 
L 324.617343 28.94995 
L 324.925249 28.807686 
L 351.866146 28.665421 
L 351.921975 29.438065 
L 352.373683 29.695612 
L 352.42782 31.498447 
L 352.42782 31.498447 
L 352.528482 43.345642 
L 352.616455 43.745455 
L 356.19036 43.745455 
L 356.245343 42.715264 
L 356.378148 37.821857 
L 356.500803 37.564309 
L 356.54479 36.019023 
L 356.73004 35.761475 
L 356.856925 34.216188 
L 356.871305 33.701093 
L 357.021874 33.443545 
L 357.125073 31.898259 
L 357.692669 31.640711 
L 357.996345 30.352972 
L 358.256034 30.352972 
L 358.327935 29.580329 
L 362.071019 29.580329 
L 362.126848 24.94447 
L 362.261345 15.292562 
L 366.003583 15.292562 
L 366.165149 22.761446 
L 366.165149 22.761446 
L 366.202368 26.367115 
L 366.340249 26.624662 
L 366.674377 32.290712 
L 366.706521 32.290712 
L 367.18699 32.54826 
L 367.510967 26.109567 
L 367.626009 26.109567 
L 367.668304 28.427496 
L 367.944911 28.685044 
L 368.399157 28.685044 
L 369.410847 29.396366 
L 566.010288 29.396366 
L 566.010288 29.396366 
" style="fill:none;stroke:#5c8dfc;stroke-linecap:round;stroke-width:1.5;"/>
   </g>
   <g id="patch_3">
    <path d="M 206.3875 10.8 
L 1069.2 10.8 
" style="fill:none;stroke:#ffffff;stroke-linecap:square;stroke-linejoin:miter;"/>
   </g>
   <g id="patch_4">
    <path d="M 1069.2 373.2 
L 1069.2 10.8 
" style="fill:none;stroke:#ffffff;stroke-linecap:square;stroke-linejoin:miter;"/>
   </g>
   <g id="patch_5">
    <path d="M 206.3875 373.2 
L 1069.2 373.2 
" style="fill:none;stroke:#ffffff;stroke-linecap:square;stroke-linejoin:miter;"/>
   </g>
   <g id="patch_6">
    <path d="M 206.3875 373.2 
L 206.3875 10.8 
" style="fill:none;stroke:#ffffff;stroke-linecap:square;stroke-linejoin:miter;"/>
   </g>
   <g id="text_29">
    <!-- 0 -->
    <g style="fill:#2a2d34;" transform="translate(474.673971507 223.447933884)scale(0.14 -0.14)">
     <use xlink:href="#ArialMT-30"/>
    </g>
   </g>
   <g id="text_30">
    <!-- 8 -->
    <g style="fill:#2a2d34;" transform="translate(567.7020769 199.487603306)scale(0.14 -0.14)">
     <use xlink:href="#ArialMT-38"/>
    </g>
   </g>
  </g>
 </g>
 <defs>
  <clipPath id="p5f51c8ddc5">
   <rect height="362.4" width="862.8125" x="206.3875" y="10.8"/>
  </clipPath>
 </defs>
</svg>
